<?xml version="1.0" encoding="UTF-8" standalone="no"?>
<!DOCTYPE svg PUBLIC "-//W3C//DTD SVG 1.1//EN" "http://www.w3.org/Graphics/SVG/1.1/DTD/svg11.dtd">
<svg width="100%" height="100%" viewBox="0 0 114 114" version="1.1" xmlns="http://www.w3.org/2000/svg" xmlns:xlink="http://www.w3.org/1999/xlink" xml:space="preserve" xmlns:serif="http://www.serif.com/" style="fill-rule:evenodd;clip-rule:evenodd;stroke-linejoin:round;stroke-miterlimit:2;">
    <g id="Page-1">
        <g id="Group-22">
            <circle id="Oval-5-Copy" cx="57" cy="57" r="57" style="fill:rgb(12,12,12);"/>
            <g id="noun_Add-Image_187803" transform="matrix(1,0,0,1,18,24)">
                <g opacity="0.64">
                    <g id="Group">
                        <path id="Shape" d="M30.945,30.971L42.899,39.97L48.886,36.977L60.84,44.169L60.84,48.969L24.959,48.969L24.959,36.977L30.945,30.971Z" style="fill:white;fill-rule:nonzero;"/>
                        <path id="Shape1" serif:id="Shape" d="M60.858,29.465C60.858,31.95 58.85,33.964 56.373,33.964C53.896,33.964 51.888,31.95 51.888,29.465C51.888,26.979 53.896,24.965 56.373,24.965C58.85,24.965 60.858,26.979 60.858,29.465Z" style="fill:white;fill-rule:nonzero;"/>
                        <g id="Shape2" serif:id="Shape">
                            <path d="M12.01,0.038L20.023,0.038L20.023,32.176L12.01,32.176L12.01,0.038Z" style="fill:white;fill-rule:nonzero;"/>
                            <path d="M0,12.087L32.034,12.087L32.034,20.126L0,20.126L0,12.087Z" style="fill:white;fill-rule:nonzero;"/>
                        </g>
                        <path id="Shape3" serif:id="Shape" d="M66.845,12.972L38.902,12.972L38.902,18.978L66.845,18.978L66.845,54.975L18.991,54.975L18.991,39.142L13.005,39.142L13.005,54.975C13.005,58.27 15.688,60.981 18.991,60.981L66.845,60.981C70.129,60.981 72.831,58.289 72.831,54.975L72.831,18.959C72.812,15.664 70.129,12.972 66.845,12.972Z" style="fill:white;fill-rule:nonzero;"/>
                    </g>
                </g>
            </g>
        </g>
    </g>
</svg>
