<svg id="Layer_1" data-name="Layer 1" xmlns="http://www.w3.org/2000/svg" viewBox="0 0 72 72"><defs><style>.cls-1{fill:#f3ba2f;}.cls-2{fill:#fff;}</style></defs><path class="cls-1" d="M67.43,43.84A32.39,32.39,0,1,1,43.83,4.57a32.39,32.39,0,0,1,23.6,39.27Z"/><g id="Layer_2" data-name="Layer 2"><g id="Layer_1-2" data-name="Layer 1-2"><path class="cls-2" d="M27.61,32.55,36,24.16l8.39,8.4,4.89-4.88L36,14.4,22.73,27.67l4.88,4.88M14.4,36l4.88-4.88L24.16,36l-4.88,4.88Zm13.21,3.45L36,47.84l8.39-8.4,4.89,4.88h0L36,57.6,22.73,44.33h0l4.89-4.87M47.84,36l4.88-4.88L57.6,36l-4.88,4.88Z"/><path class="cls-2" d="M41,36h0l-5-5L32.34,34.7h0l-.42.42-.87.87h0L36,41l5-5h0"/></g></g></svg>