<svg id="Layer_1" data-name="Layer 1" xmlns="http://www.w3.org/2000/svg" viewBox="0 0 72 72"><defs><style>.cls-1{fill:#f7931a;}.cls-2{fill:#fff;}</style></defs><path class="cls-1" d="M67.43,43.84A32.39,32.39,0,1,1,43.83,4.57a32.39,32.39,0,0,1,23.6,39.27Z"/><path class="cls-2" d="M50.28,31.38c.65-4.31-2.63-6.62-7.12-8.17l1.45-5.84-3.55-.89-1.42,5.69c-.93-.23-1.89-.45-2.85-.67l1.43-5.72-3.55-.89-1.46,5.84c-.77-.18-1.53-.35-2.27-.54h0L26,19l-.95,3.8s2.64.6,2.59.64a1.88,1.88,0,0,1,1.65,2.07l-1.66,6.65a3.09,3.09,0,0,1,.37.12l-.37-.09-2.33,9.32a1.29,1.29,0,0,1-1.63.84c0,.05-2.58-.64-2.58-.64l-1.76,4.07L24,46.88c.86.21,1.71.44,2.54.65l-1.48,5.91,3.56.89,1.45-5.85,2.84.74L31.44,55l3.56.89L36.47,50c6.06,1.15,10.62.69,12.54-4.79,1.55-4.42-.08-7-3.27-8.63,2.33-.53,4.08-2.06,4.54-5.22ZM42.16,42.77c-1.1,4.42-8.53,2-10.94,1.43l2-7.82c2.41.6,10.14,1.79,9,6.39Zm1.1-11.45c-1,4-7.19,2-9.2,1.48l1.77-7.1C37.84,26.2,44.3,27.13,43.26,31.32Z"/></svg>