<svg id="Layer_1" data-name="Layer 1" xmlns="http://www.w3.org/2000/svg" viewBox="0 0 72 72"><defs><style>.cls-1{fill:#333;}.cls-2{fill:#fff;}</style></defs><path class="cls-1" d="M67.43,43.84A32.39,32.39,0,1,1,43.83,4.57a32.39,32.39,0,0,1,23.6,39.27Z"/><path class="cls-2" d="M50,36.76l-.12,0-.19-.08-6.5-3.13.61-.77c.6-.77,1.15-1.47,1.71-2.16q3-3.69,6.08-7.35A1.26,1.26,0,0,0,52,22.16c-.1-.45-.52-.7-1-.91l-2.86-1.37c-3.68-1.76-7.48-3.58-11.24-5.32a2.81,2.81,0,0,0-2,0,21.15,21.15,0,0,0-2.34,1.15l-.92.49-2.9,1.49-7.77,4a1.44,1.44,0,0,0-.91,1A1.5,1.5,0,0,0,20.66,24a15.14,15.14,0,0,1,1.45,1.44c1.62,1.89,3.23,3.8,4.84,5.7l1.49,1.76a4.84,4.84,0,0,1,.47.61,2.69,2.69,0,0,1-.66.43l-3.88,2-3.24,1.69c-.54.28-1.05.62-1.11,1.14s.35.94.8,1.34a12.33,12.33,0,0,1,1.2,1.2l3.7,4.38,3,3.51c2.14,2.53,4.28,5.07,6.43,7.59.39.47.73.83,1.15.83h0c.43,0,.74-.36,1.1-.82,1.29-1.61,2.57-3.24,3.86-4.86l4.56-5.77c1.63-2,3.3-4.18,5-6.26.77-.93,1.16-1.39,1-1.9S51.11,37.24,50,36.76ZM32.41,47c.1,0,.19.12.29.18a3.45,3.45,0,0,0,.41.25c.59.31,1,.57,1.35.77,1.34.78,1.48.78,2.93-.13l1.23-.74c2-1.15,4-2.37,5.86-3.56.77-.48,1.54-1,2.32-1.43q-5,6.28-9.94,12.56c-.12.15-.5.63-.63.65s-.48-.45-.62-.61l-2.14-2.53-7.79-9.21-.07-.09Zm10.94-4.5L36.6,46.61c-.59.36-.92.4-1.34.15-2.48-1.48-5-2.94-7.45-4.41l-5.18-3.06a2.74,2.74,0,0,1-.38-.31l.35-.2c.52-.31,1-.59,1.49-.85l2-1c1.05-.54,2.15-1.09,3.2-1.68a.92.92,0,0,1,1.42.27c1.12,1.39,2.27,2.77,3.43,4.14l.74.88c.52.62,1,1,1.38,1s.84-.36,1.34-1,1-1.23,1.49-1.85c.9-1.12,1.82-2.27,2.76-3.38a1,1,0,0,1,.7-.25c2,.91,4.08,1.89,6,2.85l.78.38a1.26,1.26,0,0,1,.3.22h0A6.19,6.19,0,0,1,49,39ZM35.29,30.72q-4.08-2.43-8.17-4.83l-4.67-2.76a1,1,0,0,1-.23-.2,4.84,4.84,0,0,1,.49-.31l2.17-1.13c3.35-1.75,6.81-3.55,10.24-5.28a1.8,1.8,0,0,1,1.38-.06c3.53,1.63,7.08,3.35,10.52,5l2.19,1.06a3.15,3.15,0,0,1,.45.27,3.18,3.18,0,0,1-.44.36l-5.73,3.5-7,4.28C36,30.93,35.69,31,35.29,30.72ZM27.37,28c2.28,1.34,4.64,2.72,6.94,4.12a2.58,2.58,0,0,0,3.07,0c2.38-1.51,4.83-3,7.21-4.47l2.09-1.28.13-.08q-2.25,2.87-4.52,5.72c-1.88,2.38-3.77,4.76-5.64,7.14-.27.34-.39.39-.43.39s-.13,0-.35-.27Q32.45,35.11,29,31.05l-3.56-4.22Z"/></svg>