<svg id="Layer_1" data-name="Layer 1" xmlns="http://www.w3.org/2000/svg" viewBox="0 0 72 72"><defs><style>.cls-1{fill:#929497;}.cls-2{fill:#fff;}</style></defs><circle class="cls-1" cx="36.13" cy="36.38" r="32.4"/><circle class="cls-1" cx="36.13" cy="36.38" r="32.4"/><path class="cls-2" d="M36,65.3A29.3,29.3,0,1,1,65.3,36,29.33,29.33,0,0,1,36,65.3ZM36,7.7A28.3,28.3,0,1,0,64.3,36,28.34,28.34,0,0,0,36,7.7Z"/><path class="cls-2" d="M36,61.7h0c-.66,0-1.33,0-2-.08a.5.5,0,1,1,.08-1c.63,0,1.27.07,1.91.07a.5.5,0,0,1,.51.5A.48.48,0,0,1,36,61.7Zm3-.18a.5.5,0,0,1-.06-1c.64-.08,1.28-.18,1.91-.3a.49.49,0,0,1,.59.39.5.5,0,0,1-.39.59c-.66.13-1.33.23-2,.31Zm-7.87-.29H31c-.66-.13-1.32-.29-2-.47a.5.5,0,1,1,.27-1c.62.17,1.25.32,1.88.45a.5.5,0,0,1,.4.58A.51.51,0,0,1,31.12,61.23Zm12.69-.76a.51.51,0,0,1-.48-.35.51.51,0,0,1,.33-.63c.61-.2,1.22-.42,1.81-.67a.5.5,0,0,1,.66.27.51.51,0,0,1-.27.65c-.62.26-1.26.49-1.89.7ZM26.39,59.8a.48.48,0,0,1-.2,0c-.62-.25-1.23-.54-1.83-.84a.5.5,0,0,1-.22-.67.49.49,0,0,1,.67-.22q.87.44,1.77.81a.51.51,0,0,1,.27.65A.49.49,0,0,1,26.39,59.8Zm21.94-1.32a.5.5,0,0,1-.25-.93c.56-.32,1.12-.66,1.65-1a.51.51,0,0,1,.7.14.5.5,0,0,1-.14.69c-.56.38-1.14.73-1.72,1.06A.5.5,0,0,1,48.33,58.48Zm-26.3-1a.47.47,0,0,1-.28-.09c-.56-.37-1.11-.77-1.63-1.18a.5.5,0,1,1,.61-.79c.51.4,1,.78,1.58,1.14a.5.5,0,0,1,.13.69A.48.48,0,0,1,22,57.48Zm30.34-1.82a.5.5,0,0,1-.32-.88c.49-.42,1-.87,1.42-1.32a.5.5,0,0,1,.71,0,.51.51,0,0,1,0,.71c-.47.47-1,.93-1.48,1.37A.52.52,0,0,1,52.37,55.66ZM18.21,54.35a.51.51,0,0,1-.36-.15c-.47-.47-.93-1-1.37-1.48a.5.5,0,0,1,.76-.65c.42.49.87,1,1.32,1.42a.5.5,0,0,1,0,.71A.49.49,0,0,1,18.21,54.35ZM55.79,52.1a.5.5,0,0,1-.3-.11.5.5,0,0,1-.09-.7c.4-.51.79-1,1.14-1.57a.51.51,0,0,1,.7-.14.5.5,0,0,1,.14.69c-.38.56-.78,1.11-1.19,1.64A.53.53,0,0,1,55.79,52.1ZM15.07,50.54a.51.51,0,0,1-.42-.23c-.37-.55-.73-1.13-1.06-1.71a.5.5,0,0,1,.19-.68.51.51,0,0,1,.69.19c.31.56.65,1.11,1,1.65a.49.49,0,0,1-.13.69A.51.51,0,0,1,15.07,50.54Zm43.39-2.6a.5.5,0,0,1-.44-.73c.29-.57.56-1.17.81-1.76a.5.5,0,1,1,.92.38c-.25.62-.54,1.24-.84,1.84A.51.51,0,0,1,58.46,47.94ZM12.73,46.19a.5.5,0,0,1-.46-.31c-.26-.61-.49-1.25-.7-1.89a.49.49,0,0,1,.32-.63.5.5,0,0,1,.63.32c.2.61.42,1.22.67,1.82a.49.49,0,0,1-.27.65A.43.43,0,0,1,12.73,46.19Zm47.53-2.85-.13,0a.51.51,0,0,1-.35-.62c.17-.62.33-1.25.45-1.88a.51.51,0,0,1,.59-.4.5.5,0,0,1,.39.59c-.13.66-.29,1.32-.47,2A.5.5,0,0,1,60.26,43.34Zm-49-1.87a.5.5,0,0,1-.49-.4c-.13-.66-.24-1.33-.32-2a.5.5,0,0,1,1-.12c.07.64.17,1.28.3,1.91a.5.5,0,0,1-.39.59Zm49.83-3h0a.49.49,0,0,1-.46-.53c0-.65.07-1.3.07-1.94v-.11a.5.5,0,0,1,1,0V36c0,.67,0,1.35-.08,2A.5.5,0,0,1,61.12,38.48ZM10.8,36.53a.48.48,0,0,1-.5-.47V36c0-.65,0-1.31.07-2a.5.5,0,1,1,1,.08c0,.62-.07,1.26-.07,1.88A.52.52,0,0,1,10.8,36.53ZM61,33.43a.5.5,0,0,1-.49-.44c-.08-.64-.18-1.28-.31-1.91a.49.49,0,0,1,.39-.59.5.5,0,0,1,.59.39c.13.65.24,1.32.32,2a.49.49,0,0,1-.43.55ZM11.27,31.64h-.1a.48.48,0,0,1-.39-.58c.12-.66.28-1.32.46-2a.5.5,0,0,1,.62-.34.49.49,0,0,1,.34.61c-.17.62-.32,1.26-.44,1.89A.5.5,0,0,1,11.27,31.64Zm48.67-3a.5.5,0,0,1-.48-.34c-.2-.62-.42-1.23-.67-1.82a.49.49,0,0,1,.26-.65.5.5,0,0,1,.66.26c.26.62.5,1.26.71,1.89a.5.5,0,0,1-.32.63Zm-47.25-1.7a.41.41,0,0,1-.19,0,.49.49,0,0,1-.27-.65c.25-.62.53-1.24.84-1.83a.49.49,0,0,1,.67-.22.5.5,0,0,1,.22.67c-.29.57-.56,1.17-.81,1.76A.51.51,0,0,1,12.69,26.91ZM57.94,24.1a.49.49,0,0,1-.43-.26c-.32-.56-.66-1.11-1-1.64a.5.5,0,0,1,.13-.7.51.51,0,0,1,.7.14c.37.55.73,1.13,1.06,1.71a.5.5,0,0,1-.19.68A.45.45,0,0,1,57.94,24.1ZM15,22.55a.57.57,0,0,1-.28-.08.51.51,0,0,1-.14-.7c.37-.55.77-1.1,1.19-1.63a.5.5,0,0,1,.78.62c-.4.51-.78,1-1.13,1.57A.52.52,0,0,1,15,22.55ZM55.1,20.06a.52.52,0,0,1-.38-.17c-.42-.49-.87-1-1.32-1.42a.5.5,0,0,1,0-.71.5.5,0,0,1,.7,0c.48.47.94,1,1.38,1.47a.51.51,0,0,1,0,.71A.52.52,0,0,1,55.1,20.06Zm-37-1.33a.5.5,0,0,1-.35-.85c.47-.48,1-.94,1.48-1.38a.49.49,0,0,1,.7.05.51.51,0,0,1-.05.71c-.49.42-1,.87-1.42,1.32A.51.51,0,0,1,18.13,18.73Zm33.4-2.08a.5.5,0,0,1-.31-.1c-.51-.4-1-.78-1.57-1.14a.5.5,0,0,1-.14-.69.49.49,0,0,1,.69-.14c.56.37,1.11.76,1.64,1.18a.49.49,0,0,1,.08.7A.48.48,0,0,1,51.53,16.65ZM21.94,15.58a.47.47,0,0,1-.41-.22.49.49,0,0,1,.13-.69c.56-.37,1.13-.73,1.72-1.06a.5.5,0,0,1,.68.19.51.51,0,0,1-.19.68c-.56.32-1.12.66-1.65,1A.48.48,0,0,1,21.94,15.58ZM47.36,14a.59.59,0,0,1-.22-.05q-.87-.45-1.77-.81a.5.5,0,0,1,.38-.93c.62.26,1.24.54,1.84.84a.52.52,0,0,1,.22.68A.51.51,0,0,1,47.36,14Zm-21.08-.76a.49.49,0,0,1-.46-.31.51.51,0,0,1,.27-.65c.62-.26,1.26-.5,1.89-.7a.49.49,0,0,1,.63.32.5.5,0,0,1-.32.63c-.61.2-1.22.42-1.81.67A.48.48,0,0,1,26.28,13.24Zm16.48-1-.14,0c-.62-.17-1.25-.32-1.88-.45a.49.49,0,0,1-.4-.58.5.5,0,0,1,.59-.4c.65.13,1.31.28,2,.46a.5.5,0,0,1-.13,1ZM31,11.8a.51.51,0,0,1-.49-.41.49.49,0,0,1,.39-.58c.66-.14,1.33-.24,2-.32a.48.48,0,0,1,.55.43.5.5,0,0,1-.43.56c-.64.08-1.29.18-1.92.31Zm6.89-.43h0c-.61,0-1.23-.07-1.85-.07a.53.53,0,0,1-.54-.5.46.46,0,0,1,.46-.5H36c.64,0,1.29,0,1.93.07a.5.5,0,0,1,0,1Z"/><path class="cls-2" d="M49.23,26.1c-4.14-4.43-10.46-4.43-15.08-4.43-1.3,0-2.63,0-3.74.07l-1.95,0-1.86,0c-1.06,0-2.32-.07-3.46-.07-.36,0-1.19,0-1.19.72,0,.32.18.71,1,.71a6.52,6.52,0,0,1,1.36.11c.95.2,1.22.58,1.29,1.81s.07,2.23.07,8v6.65c0,3.46,0,6.44-.18,8-.14,1.07-.31,1.66-.78,1.76a5.33,5.33,0,0,1-1.25.14c-.84,0-1,.43-1,.68s.14.75,1.11.75l1.2,0c.45,0,.91,0,1.36,0,.88,0,1.69,0,2.09,0h0c.82,0,2,.09,3.18.19l.41,0c1.43.11,2.94.22,4.28.22,7.46,0,11.33-3.2,12.64-4.57A15.55,15.55,0,0,0,52.91,36,14,14,0,0,0,49.23,26.1ZM31.05,32.4c0-2.94,0-6.27,0-7.56,0-.3.05-.33.23-.42a10.45,10.45,0,0,1,2.23-.22c4.36,0,7.71,1.2,10.23,3.67A12.53,12.53,0,0,1,47.21,37c0,4.39-1,7.37-3,9.13S39.74,48.8,36,48.8c-2.67,0-4.09-.7-4.53-1.36a8,8,0,0,1-.34-2.67c0-.7-.07-3.6-.07-7.61Z"/></svg>