<svg id="Layer_1" data-name="Layer 1" xmlns="http://www.w3.org/2000/svg" viewBox="0 0 72 72"><defs><style>.cls-1{fill:#63618e;}.cls-2{fill:#a5a5a5;}.cls-3{fill:#fff;}.cls-4{fill:#6d6d6d;}</style></defs><path class="cls-1" d="M67.43,43.84A32.39,32.39,0,1,1,43.83,4.57a32.39,32.39,0,0,1,23.6,39.27Z"/><g id="Layer_1-2" data-name="Layer_1"><g id="_1421394342400" data-name=" 1421394342400"><polygon class="cls-2" points="36 13.24 35.69 14.28 35.69 44.38 36 44.68 49.97 36.42 36 13.24"/><polygon class="cls-3" points="36 13.24 22.02 36.42 36 44.68 36 30.07 36 13.24"/><polygon class="cls-2" points="36 47.33 35.82 47.54 35.82 58.26 36 58.76 49.98 39.07 36 47.33"/><polygon class="cls-3" points="36 58.76 36 47.33 22.02 39.07 36 58.76"/><polygon class="cls-4" points="36 44.68 49.97 36.42 36 30.07 36 44.68"/><polygon class="cls-2" points="22.02 36.42 36 44.68 36 30.07 22.02 36.42"/></g></g></svg>