<svg id="Layer_1" data-name="Layer 1" xmlns="http://www.w3.org/2000/svg" viewBox="0 0 72 72"><defs><style>.cls-1{fill:#13b5ec;}.cls-2{fill:#fff;fill-rule:evenodd;}</style></defs><path class="cls-1" d="M67.43,43.84A32.39,32.39,0,1,1,43.83,4.57a32.39,32.39,0,0,1,23.6,39.27Z"/><g id="Layer_2" data-name="Layer 2"><g id="Layer_1-2" data-name="Layer 1-2"><path class="cls-2" d="M38.66,29.25l8-4.65v9.3Zm8,19.92L36,55.37l-10.63-6.2V38.32L36,44.52l10.63-6.2ZM25.37,24.6l8,4.65-8,4.65Zm12,6.86,8,4.65-8,4.65Zm-2.66,9.3-8-4.65,8-4.65ZM45.3,22.39,36,27.7l-9.3-5.31L36,16.85ZM22.72,21.5v29L36,58,49.28,50.5v-29L36,14Z"/></g></g></svg>