<?xml version="1.0" encoding="UTF-8" ?>
<!DOCTYPE svg PUBLIC "-//W3C//DTD SVG 1.1//EN" "http://www.w3.org/Graphics/SVG/1.1/DTD/svg11.dtd">
<svg width="223pt" height="206pt" viewBox="0 0 223 206" version="1.1" xmlns="http://www.w3.org/2000/svg">
<g id="#ffffffff">
<path fill="#ffffff" opacity="1.00" d=" M 25.25 25.01 C 38.25 24.99 51.25 25.00 64.25 25.00 C 64.25 47.87 64.26 70.74 64.25 93.61 C 87.22 70.75 109.98 47.66 133.14 24.99 C 154.72 25.01 176.29 24.99 197.86 25.00 C 183.17 39.64 168.63 54.44 153.74 68.87 C 152.28 67.42 150.83 65.96 149.39 64.50 C 121.17 92.62 93.09 120.89 64.82 148.97 C 63.02 148.31 61.90 146.22 60.39 144.99 C 48.68 156.66 37.05 168.41 25.29 180.03 C 25.20 128.35 25.28 76.68 25.25 25.01 Z" />
</g>
<g id="#e6e6e6ff">
<path fill="#e6e6e6" opacity="1.00" d=" M 90.99 131.15 C 100.66 121.47 110.33 111.80 120.00 102.14 C 126.00 108.11 131.95 114.12 137.97 120.08 C 150.09 132.91 163.03 144.97 175.16 157.81 C 182.79 165.43 190.47 173.02 198.03 180.72 C 184.55 180.77 171.07 180.75 157.58 180.73 C 150.23 173.35 142.87 165.99 135.49 158.64 C 134.12 160.01 132.75 161.38 131.39 162.76 C 123.97 155.41 116.48 148.14 109.07 140.79 C 107.79 142.23 106.32 143.45 104.87 144.70 C 100.29 140.14 95.71 135.57 90.99 131.15 Z" />
</g>
</svg>
