<?xml version="1.0" encoding="UTF-8" ?>
<!DOCTYPE svg PUBLIC "-//W3C//DTD SVG 1.1//EN" "http://www.w3.org/Graphics/SVG/1.1/DTD/svg11.dtd">
<svg width="500pt" height="150pt" viewBox="0 0 500 150" version="1.1" xmlns="http://www.w3.org/2000/svg">
<g id="#000000ff">
<path fill="#000000" opacity="1.00" d=" M 31.41 19.52 C 32.51 17.82 33.48 15.36 35.91 15.38 C 38.12 15.82 39.45 17.78 40.93 19.28 C 43.68 17.70 47.70 16.18 50.47 18.42 C 52.67 20.28 50.93 22.93 50.17 25.02 C 63.27 18.16 79.72 18.47 92.55 25.84 C 91.85 23.68 89.70 21.39 91.14 19.07 C 93.75 15.86 98.35 17.79 101.47 19.13 C 102.98 17.61 104.55 15.10 107.04 15.51 C 109.05 15.81 109.70 17.95 110.64 19.44 C 113.21 20.19 114.80 22.13 115.48 24.67 C 118.28 25.30 119.30 27.93 120.37 30.26 C 121.46 31.29 122.74 32.29 123.04 33.86 C 124.03 37.25 125.64 40.40 127.05 43.63 C 129.49 45.71 130.13 48.82 130.58 51.84 C 132.65 54.55 133.28 57.92 132.85 61.26 C 136.28 64.11 134.98 68.57 133.64 72.16 C 135.65 76.00 133.78 80.35 131.70 83.72 C 129.56 84.60 127.02 83.70 124.94 84.86 C 123.36 85.58 121.92 86.59 120.46 87.52 C 121.21 85.55 121.93 83.55 122.58 81.54 C 124.90 80.67 127.64 80.14 129.20 78.01 C 130.25 76.34 130.60 74.36 131.20 72.51 C 128.21 73.15 125.51 74.60 123.28 76.68 C 123.64 75.21 123.98 73.73 124.31 72.26 C 126.24 71.27 128.46 70.54 129.81 68.74 C 131.15 66.90 130.94 64.48 131.33 62.35 C 128.50 63.41 126.11 65.27 124.11 67.51 C 124.12 66.66 124.16 64.94 124.17 64.08 C 126.06 62.37 128.55 60.80 129.02 58.10 C 129.20 56.20 128.75 54.32 128.51 52.45 C 126.63 54.14 124.91 56.00 123.34 57.98 C 123.17 57.16 123.01 56.34 122.85 55.53 C 124.25 53.83 125.97 52.23 126.56 50.03 C 126.84 48.07 125.72 46.26 125.25 44.42 C 123.79 46.33 122.44 48.31 121.24 50.39 C 120.92 49.47 120.60 48.56 120.28 47.65 C 121.33 45.90 122.92 44.20 122.91 42.03 C 122.54 40.54 121.84 39.17 121.24 37.77 C 120.13 39.68 119.14 41.65 118.26 43.68 C 117.81 42.68 117.35 41.69 116.90 40.69 C 117.98 39.24 119.29 37.89 119.88 36.14 C 120.04 34.43 119.32 32.82 118.90 31.19 C 117.84 32.43 116.81 33.68 115.80 34.95 C 115.76 35.85 115.68 37.64 115.64 38.54 C 114.78 37.49 113.93 36.43 113.09 35.37 C 114.18 33.96 115.56 32.69 116.15 30.97 C 116.48 29.15 115.67 27.37 115.39 25.61 C 113.15 27.75 111.61 30.48 111.92 33.70 C 110.82 32.46 109.69 31.24 108.56 30.03 C 109.72 28.42 111.39 26.93 111.59 24.83 C 111.46 23.35 110.96 21.93 110.55 20.51 C 108.46 22.78 106.80 25.52 107.20 28.73 C 106.12 27.71 105.02 26.70 103.92 25.71 C 104.92 24.44 106.08 23.26 106.81 21.80 C 107.20 19.89 106.51 17.97 106.20 16.11 C 103.85 18.32 101.77 21.25 102.94 24.65 C 102.09 24.89 101.25 25.14 100.41 25.38 C 97.25 24.08 94.53 26.03 92.51 28.31 C 96.12 29.65 99.81 28.98 102.94 26.84 C 103.91 27.76 104.89 28.67 105.88 29.59 C 102.58 28.62 99.43 29.74 97.00 32.05 C 100.45 33.67 104.31 33.68 107.54 31.52 C 108.64 32.62 109.74 33.72 110.85 34.81 C 107.40 33.47 104.20 34.98 101.55 37.12 C 104.97 39.08 108.85 38.83 112.15 36.80 C 113.09 38.12 114.05 39.42 115.01 40.72 C 112.03 39.36 108.66 39.27 106.03 41.48 C 107.56 44.92 112.81 43.96 115.65 42.40 C 116.51 43.80 117.39 45.19 118.26 46.59 C 115.00 45.50 111.65 46.05 108.89 48.09 C 111.91 50.07 115.54 50.20 118.82 48.81 C 119.50 50.68 120.19 52.54 120.91 54.39 C 117.99 52.34 114.54 52.60 111.40 54.01 C 114.06 56.51 117.59 57.70 121.17 56.53 C 121.59 58.47 122.02 60.42 122.46 62.36 C 119.68 59.69 116.03 58.75 112.34 60.07 C 114.54 63.42 118.40 64.83 122.30 64.49 C 122.41 66.30 122.54 68.11 122.67 69.92 C 120.54 66.36 116.88 64.34 112.67 64.68 C 114.01 69.07 117.93 71.27 122.03 72.50 C 122.16 74.03 122.04 75.57 122.04 77.10 C 120.64 73.79 117.80 71.64 114.45 70.54 C 114.91 72.68 115.05 74.97 116.13 76.92 C 117.36 78.73 119.30 79.85 121.02 81.14 C 120.62 82.14 120.23 83.13 119.84 84.13 C 118.70 81.42 116.67 79.29 114.37 77.52 C 112.32 82.10 114.12 86.97 117.71 90.12 C 117.13 91.15 116.56 92.18 115.98 93.20 C 115.47 90.63 114.41 88.22 113.04 85.99 C 111.77 88.17 110.17 90.32 109.88 92.90 C 109.63 95.42 110.64 97.81 111.41 100.15 C 110.50 101.21 109.59 102.27 108.68 103.33 C 109.12 100.00 109.00 96.49 107.06 93.61 C 102.63 97.12 101.18 103.08 103.19 108.33 C 101.17 109.87 99.12 111.38 97.04 112.86 C 99.79 109.21 100.72 104.47 98.46 100.31 C 96.79 99.79 95.93 101.97 94.88 102.91 C 91.97 106.14 92.05 110.67 93.02 114.65 C 90.38 115.80 87.70 116.85 85.02 117.89 C 86.70 115.70 88.89 113.70 89.57 110.92 C 90.53 107.68 89.00 104.48 88.04 101.45 C 85.58 103.85 82.78 106.37 82.12 109.91 C 81.39 112.73 81.90 115.61 82.58 118.37 C 80.00 118.93 77.42 119.46 74.83 119.98 C 77.02 117.62 79.98 115.44 80.28 111.97 C 80.92 109.10 79.99 106.26 79.21 103.53 C 76.07 106.25 72.48 109.41 72.28 113.88 C 71.88 116.41 73.17 119.37 71.01 121.38 C 73.67 123.92 75.62 127.46 79.21 128.83 C 82.33 130.03 85.68 129.10 88.79 128.40 C 86.46 124.90 83.04 122.48 79.52 120.32 C 83.89 119.24 85.82 124.05 89.46 125.29 C 93.00 126.85 96.80 125.28 100.18 124.07 C 97.50 121.04 94.20 118.46 90.07 117.87 C 91.34 117.33 92.60 116.79 93.87 116.26 C 96.31 117.98 98.84 119.87 101.92 120.17 C 104.92 120.22 107.53 118.48 110.04 117.07 C 107.04 114.77 103.54 113.19 99.72 113.10 C 101.28 111.96 102.85 110.83 104.40 109.66 C 106.77 111.14 109.08 113.02 111.98 113.29 C 114.94 113.61 117.53 111.86 119.87 110.30 C 116.19 107.36 111.52 106.04 106.92 107.39 C 108.98 105.45 110.81 103.26 112.93 101.38 C 115.63 101.91 118.29 103.27 121.11 102.66 C 124.00 102.07 126.02 99.73 127.97 97.70 C 123.73 95.99 118.99 95.66 114.95 98.10 C 116.43 95.86 117.83 93.57 119.13 91.23 C 121.76 91.38 124.53 91.98 127.06 90.96 C 129.37 90.20 130.80 88.07 132.17 86.20 L 132.38 85.84 C 132.92 84.91 133.53 84.02 134.20 83.18 C 135.23 84.59 137.17 85.94 136.51 87.98 C 134.99 91.56 132.31 94.93 128.40 95.97 C 129.86 97.25 131.90 98.80 131.11 101.05 C 129.33 105.20 124.87 107.52 120.58 108.21 C 121.81 109.85 124.43 111.65 123.01 113.97 C 121.00 117.05 117.09 117.89 113.75 118.70 C 112.65 123.27 107.69 124.45 103.77 125.51 C 102.81 130.75 96.51 130.68 92.38 131.52 C 89.32 134.64 84.56 135.12 80.46 134.44 C 76.45 133.71 73.50 130.72 71.07 127.67 C 69.33 129.71 67.63 131.95 65.17 133.18 C 60.43 135.64 54.22 135.20 50.04 131.80 C 45.91 130.41 39.55 130.86 38.31 125.50 C 34.41 124.42 29.60 123.15 28.43 118.67 C 25.15 117.88 21.24 117.10 19.29 114.05 C 17.74 111.75 20.40 109.90 21.56 108.19 C 17.50 107.49 13.47 105.44 11.35 101.76 C 10.10 99.95 11.79 97.98 12.43 96.31 C 12.98 97.13 13.51 97.97 14.02 98.82 L 14.06 99.18 C 16.16 100.63 18.16 102.70 20.87 102.79 C 23.41 103.01 25.79 101.93 28.16 101.19 C 30.02 103.36 32.01 105.43 34.09 107.40 C 29.50 106.04 24.82 107.35 21.16 110.30 C 23.48 111.87 26.04 113.60 28.99 113.30 C 31.87 113.06 34.17 111.20 36.48 109.66 C 38.10 110.82 39.72 111.96 41.35 113.11 C 37.49 113.17 33.98 114.78 30.95 117.06 C 33.15 118.33 35.39 119.71 37.94 120.14 C 41.44 120.38 44.41 118.18 47.13 116.28 C 48.37 116.77 49.60 117.26 50.84 117.75 C 46.81 118.54 43.49 121.03 40.84 124.07 C 44.20 125.28 47.96 126.83 51.49 125.32 C 55.18 124.09 57.06 119.18 61.50 120.33 C 57.96 122.47 54.54 124.90 52.22 128.40 C 55.54 129.16 59.22 130.15 62.46 128.53 C 65.82 126.87 67.72 123.45 70.38 120.94 C 69.90 120.68 68.93 120.16 68.45 119.90 C 68.81 117.12 69.20 114.22 68.24 111.51 C 67.21 108.11 64.37 105.79 61.73 103.62 C 61.01 106.33 60.14 109.12 60.73 111.94 C 61.02 115.42 63.96 117.63 66.17 119.98 C 63.61 119.46 61.05 118.93 58.50 118.38 C 59.22 115.18 59.63 111.77 58.53 108.60 C 57.48 105.69 55.13 103.55 52.96 101.46 C 51.92 104.46 50.56 107.64 51.41 110.86 C 52.05 113.67 54.31 115.67 55.99 117.88 C 53.35 116.87 50.72 115.83 48.09 114.79 C 48.32 112.21 48.75 109.60 48.28 107.04 C 47.48 103.93 45.02 101.70 42.86 99.48 C 42.16 101.63 41.27 103.77 41.16 106.05 C 41.25 108.59 42.83 110.70 43.92 112.89 C 41.87 111.39 39.84 109.87 37.83 108.32 C 39.88 103.04 38.28 97.15 33.93 93.58 C 32.07 96.59 31.59 100.12 32.43 103.54 C 31.47 102.38 30.49 101.23 29.52 100.08 C 30.37 97.80 31.41 95.44 31.13 92.94 C 30.85 90.34 29.21 88.20 27.96 85.99 C 26.55 88.23 25.51 90.68 25.03 93.29 C 24.45 92.23 23.88 91.17 23.31 90.11 C 26.83 86.93 28.76 82.10 26.62 77.53 C 23.98 79.33 22.14 81.87 21.16 84.90 C 20.89 83.93 20.37 82.00 20.11 81.04 C 24.14 78.99 26.47 75.01 26.58 70.52 C 23.36 71.70 20.29 73.55 19.23 77.02 C 19.04 75.48 18.84 73.94 18.63 72.40 C 23.02 71.65 26.86 69.02 28.36 64.69 C 24.16 64.34 20.46 66.32 18.34 69.89 C 18.43 68.09 18.53 66.28 18.60 64.48 C 22.53 64.87 26.38 63.43 28.67 60.13 C 26.78 59.83 24.87 59.29 22.95 59.53 C 21.25 60.30 19.86 61.56 18.39 62.67 C 18.91 60.63 19.40 58.58 19.88 56.53 C 23.45 57.70 26.96 56.49 29.61 54.02 C 26.53 52.62 23.17 52.42 20.17 54.15 C 20.85 52.37 21.52 50.59 22.18 48.81 C 25.37 50.14 28.86 50.01 31.94 48.41 C 29.51 45.87 26.02 45.52 22.81 46.58 C 23.61 45.22 24.40 43.85 25.18 42.47 C 28.62 44.26 32.48 44.05 35.78 42.04 C 34.22 41.15 32.69 40.14 30.95 39.61 C 29.21 39.48 27.59 40.36 25.94 40.77 C 26.92 39.45 27.90 38.13 28.86 36.80 C 32.16 38.85 36.04 39.05 39.46 37.11 C 36.74 34.82 33.33 33.49 29.94 35.18 C 31.12 33.95 32.29 32.70 33.47 31.47 C 36.66 33.66 40.52 33.69 43.97 32.05 C 41.56 29.72 38.40 28.62 35.11 29.60 C 36.09 28.68 37.08 27.76 38.06 26.84 C 41.19 28.98 44.89 29.65 48.51 28.30 C 46.47 26.04 43.76 24.10 40.60 25.38 C 39.75 25.15 38.91 24.91 38.07 24.67 C 39.23 21.37 37.17 18.50 35.06 16.20 C 34.49 18.00 33.68 19.93 34.24 21.84 C 34.93 23.32 36.10 24.49 37.11 25.76 C 36.03 26.70 34.97 27.64 33.91 28.59 C 34.23 25.26 32.45 22.51 29.94 20.54 C 29.74 22.32 29.37 24.11 29.56 25.90 C 30.21 27.46 31.44 28.68 32.44 30.02 C 31.29 31.25 30.15 32.49 29.02 33.74 C 29.41 30.52 27.85 27.77 25.72 25.53 C 23.99 29.07 24.96 32.86 27.88 35.39 C 27.05 36.46 26.22 37.54 25.37 38.60 C 25.34 37.69 25.26 35.88 25.23 34.98 C 24.16 33.67 23.08 32.39 21.97 31.13 C 21.62 32.76 21.03 34.38 21.07 36.08 C 21.77 37.86 23.04 39.31 24.15 40.83 C 23.65 41.78 23.16 42.73 22.66 43.69 C 21.84 41.64 20.87 39.67 19.77 37.76 C 19.16 39.16 18.40 40.52 18.10 42.04 C 18.05 44.20 19.63 45.86 20.71 47.58 C 20.41 48.55 20.12 49.52 19.82 50.49 C 18.59 48.36 17.21 46.31 15.61 44.44 C 15.18 46.26 14.32 48.06 14.45 49.97 C 14.93 52.21 16.72 53.79 18.13 55.48 C 18.06 56.11 17.93 57.38 17.86 58.01 C 16.16 56.07 14.40 54.17 12.40 52.53 C 12.24 54.63 11.69 56.80 12.19 58.90 C 12.97 61.18 15.12 62.53 16.83 64.06 C 16.85 64.93 16.88 66.67 16.90 67.54 C 15.08 65.67 13.20 63.76 10.73 62.77 C 8.21 59.42 9.24 54.99 11.68 51.89 C 12.09 49.49 12.34 46.91 14.03 44.99 C 16.98 41.20 17.98 36.37 20.09 32.18 C 22.58 29.82 23.10 25.62 26.75 24.60 C 27.50 22.25 28.93 20.23 31.41 19.52 M 92.96 18.57 C 94.13 21.87 96.95 23.93 100.24 24.91 C 100.60 24.15 100.95 23.40 101.31 22.64 L 100.47 22.67 C 99.42 19.44 96.08 18.22 92.96 18.57 M 39.91 22.96 C 40.18 23.60 40.45 24.24 40.73 24.88 C 44.04 23.93 46.86 21.88 48.15 18.60 C 44.52 17.83 41.72 20.10 39.91 22.96 M 67.57 25.51 C 67.52 26.14 67.42 27.40 67.37 28.04 L 69.34 26.06 C 69.67 26.54 70.33 27.50 70.67 27.98 C 68.99 28.26 67.43 28.96 66.13 30.06 C 67.15 29.87 69.20 29.49 70.22 29.30 C 74.02 29.48 77.76 30.07 81.44 31.02 L 81.44 29.74 C 80.57 29.50 78.84 29.03 77.97 28.79 C 79.94 27.58 82.13 28.84 84.12 29.30 L 84.18 29.74 C 83.51 30.07 82.17 30.74 81.50 31.07 L 81.70 32.10 C 82.18 31.93 83.14 31.57 83.62 31.40 C 84.61 32.73 86.13 33.38 87.66 33.85 C 88.83 34.76 90.08 35.54 91.39 36.21 C 92.62 37.44 93.92 38.58 95.29 39.64 L 95.56 37.90 C 93.60 37.62 93.10 36.01 93.38 34.23 C 94.82 35.60 96.60 36.71 97.53 38.55 L 98.84 38.43 C 97.74 36.15 95.59 34.75 93.83 33.03 C 93.21 34.09 92.60 35.16 91.99 36.22 L 91.64 34.19 C 91.29 34.34 90.60 34.64 90.26 34.78 C 89.49 33.86 88.71 32.95 87.92 32.04 L 85.74 32.38 C 85.87 32.09 86.13 31.52 86.26 31.23 C 86.75 31.04 87.73 30.66 88.22 30.46 C 88.97 32.00 90.16 33.08 91.78 33.70 C 92.34 33.15 92.90 32.59 93.45 32.03 C 90.61 32.62 89.27 28.93 86.51 29.50 C 84.19 27.27 80.81 27.09 77.88 26.18 C 76.81 27.24 77.75 28.50 78.23 29.58 C 76.19 28.15 73.78 28.21 71.44 28.47 C 72.62 27.32 73.86 26.26 75.04 25.12 C 72.60 26.97 70.15 24.94 67.57 25.51 M 74.78 25.83 L 74.58 26.78 C 75.82 29.03 76.80 24.30 74.78 25.83 M 60.68 26.54 C 59.48 27.12 58.27 27.69 57.08 28.30 C 55.34 28.36 53.83 29.18 52.54 30.31 C 50.25 31.24 47.92 32.32 46.17 34.12 C 45.15 35.00 44.60 36.54 43.06 36.68 C 42.39 37.55 41.73 38.43 41.13 39.36 C 39.98 40.55 38.88 41.78 37.77 43.00 C 38.26 43.40 39.23 44.20 39.71 44.60 C 39.72 44.03 39.74 42.88 39.74 42.30 C 41.57 40.79 43.01 38.87 44.79 37.30 C 44.98 40.66 41.46 42.09 40.45 44.97 L 39.20 45.26 L 39.69 47.58 C 40.88 46.28 41.96 44.88 42.84 43.36 C 43.93 42.29 44.85 41.08 45.68 39.81 C 47.02 39.06 48.16 38.04 49.03 36.78 C 51.57 35.03 54.62 33.99 56.84 31.80 C 58.48 31.98 59.92 31.35 61.19 30.37 C 62.40 30.45 63.61 30.49 64.83 30.54 C 64.93 29.93 65.13 28.70 65.23 28.09 L 62.83 30.00 C 62.58 29.40 62.08 28.21 61.83 27.61 C 62.37 27.67 63.45 27.77 63.99 27.83 L 64.23 26.65 C 64.87 26.97 66.14 27.62 66.78 27.95 L 66.35 25.91 C 64.70 26.22 63.05 26.52 61.49 27.13 C 61.28 26.98 60.88 26.69 60.68 26.54 M 64.62 32.69 C 64.61 33.33 64.59 34.59 64.58 35.22 C 64.46 34.64 64.22 33.49 64.11 32.91 C 59.90 33.84 56.00 35.69 52.29 37.82 C 53.06 38.82 53.82 39.83 54.55 40.87 C 57.92 38.31 61.98 37.02 65.99 35.88 C 66.59 34.73 67.96 33.54 67.97 35.72 C 69.42 37.51 73.20 32.21 71.18 35.72 C 84.57 35.66 97.00 46.34 98.82 59.63 C 99.66 58.74 100.71 58.31 101.94 58.45 C 98.97 59.61 100.71 62.17 102.53 63.32 C 102.65 55.72 99.30 48.31 94.32 42.68 C 93.33 41.71 92.36 40.72 91.42 39.72 C 88.92 37.89 86.46 35.78 83.34 35.13 L 83.52 34.82 C 82.17 34.43 80.84 34.00 79.52 33.52 C 74.66 32.16 69.60 32.18 64.62 32.69 M 51.57 38.30 C 47.33 42.27 43.07 46.44 40.99 52.00 C 40.55 53.48 40.11 54.96 39.63 56.43 C 39.05 60.24 38.35 64.07 38.81 67.93 C 39.84 73.78 41.92 79.54 45.70 84.20 C 46.84 85.41 47.97 86.63 49.12 87.84 C 54.03 91.68 59.60 95.11 65.95 95.70 C 70.21 95.90 74.54 96.04 78.74 95.11 C 80.36 94.60 81.97 94.05 83.57 93.50 C 91.67 89.94 97.84 82.95 100.92 74.71 C 101.25 73.57 101.57 72.44 101.90 71.30 C 101.11 70.60 100.34 69.89 99.59 69.15 C 100.28 69.60 101.66 70.51 102.35 70.96 C 102.35 69.97 102.37 67.99 102.37 67.01 C 101.94 66.85 101.07 66.54 100.63 66.39 L 102.79 66.53 C 104.20 63.61 101.15 62.61 99.29 63.48 C 99.55 70.61 96.72 77.72 91.93 82.97 C 88.06 88.08 81.88 90.44 76.06 92.52 C 75.91 94.36 74.42 93.11 73.56 92.57 C 67.07 93.26 60.56 91.57 55.13 88.00 C 50.94 85.19 47.39 81.46 45.14 76.91 C 44.71 76.00 44.27 75.08 43.81 74.18 C 42.84 71.14 42.45 67.99 41.85 64.87 C 42.32 62.43 42.55 59.95 42.71 57.48 C 43.09 56.53 43.44 55.57 43.76 54.60 C 45.87 49.43 49.02 44.48 53.87 41.49 C 52.65 41.10 51.45 41.49 50.31 41.96 C 51.18 40.92 52.10 39.72 51.57 38.30 M 95.47 39.93 C 97.09 42.30 99.04 44.42 101.02 46.51 C 101.38 49.29 104.16 51.05 103.46 54.14 C 104.01 54.14 105.12 54.15 105.67 54.15 C 105.23 53.45 104.36 52.05 103.92 51.35 C 104.20 51.23 104.74 50.99 105.01 50.87 C 105.30 51.26 105.86 52.05 106.14 52.45 L 106.88 52.81 C 106.84 53.68 106.75 55.40 106.71 56.26 C 106.97 55.24 107.50 53.19 107.76 52.16 C 106.39 51.43 106.07 50.36 106.80 48.94 C 106.42 48.83 105.67 48.60 105.30 48.48 L 105.93 47.02 C 105.62 46.92 104.99 46.73 104.68 46.64 C 103.82 43.26 101.50 40.58 99.30 37.99 C 98.98 38.34 98.32 39.04 97.99 39.38 C 98.45 39.61 99.37 40.06 99.83 40.29 L 100.77 42.72 C 99.52 41.93 98.30 41.08 97.03 40.33 C 96.92 39.69 96.69 38.42 96.58 37.79 C 96.30 38.33 95.75 39.39 95.47 39.93 M 37.78 44.16 C 36.50 44.92 35.48 46.70 35.79 48.19 C 36.20 48.02 37.02 47.68 37.43 47.51 C 38.14 46.80 39.56 44.36 37.78 44.16 M 53.52 46.50 L 53.40 47.54 C 54.26 47.72 55.98 48.08 56.84 48.25 C 58.96 48.84 58.27 51.38 58.48 53.02 C 58.37 61.36 58.62 69.71 58.35 78.04 C 58.24 80.78 54.70 80.35 52.81 80.99 C 54.34 82.10 56.28 81.78 58.04 81.75 C 62.82 81.52 67.61 81.87 72.38 81.59 C 77.94 81.17 83.61 78.47 86.40 73.45 C 91.21 65.24 88.85 52.51 79.62 48.50 C 71.28 45.42 62.19 47.34 53.52 46.50 M 39.29 47.60 C 38.45 48.87 36.33 50.06 36.68 51.72 C 38.28 51.88 40.90 48.36 39.29 47.60 M 34.77 48.43 C 34.48 49.96 34.27 51.50 34.13 53.05 C 33.20 54.04 32.77 55.35 32.16 56.54 C 32.78 56.93 34.01 57.70 34.63 58.08 C 31.41 57.77 31.47 60.93 32.43 62.88 C 32.06 64.18 31.75 65.49 31.47 66.81 C 32.39 67.10 33.32 67.38 34.25 67.65 C 32.64 66.20 32.01 64.72 34.13 63.54 C 34.58 65.25 34.41 67.73 36.42 68.52 C 36.34 67.14 36.00 65.82 35.43 64.56 C 36.20 63.01 36.55 61.39 35.40 59.91 C 36.69 58.64 36.93 57.01 36.43 55.29 C 36.90 54.74 37.86 53.64 38.34 53.09 C 34.29 52.17 35.65 56.54 35.58 58.61 C 34.78 57.75 34.01 56.86 33.27 55.95 C 34.13 54.98 34.96 53.99 35.78 52.98 C 35.56 52.39 35.12 51.20 34.91 50.60 L 36.75 50.12 C 36.10 49.55 35.44 48.98 34.77 48.43 M 105.13 55.16 C 103.23 56.19 104.71 57.74 105.44 59.05 C 105.40 60.19 105.39 61.34 105.40 62.48 C 105.61 64.51 105.36 66.55 105.39 68.59 C 104.59 69.88 104.27 71.34 104.62 72.83 C 103.15 75.32 102.89 78.37 100.80 80.51 C 101.60 80.62 103.20 80.86 104.00 80.98 C 102.78 81.11 101.58 81.31 100.40 81.60 C 99.75 82.98 97.76 85.09 100.11 86.17 C 100.34 85.17 100.80 83.17 101.03 82.17 C 101.72 83.82 101.87 85.71 103.15 87.07 L 102.60 84.07 C 104.50 83.82 106.22 81.78 105.24 79.90 C 107.14 78.64 108.97 75.52 105.48 74.75 C 105.69 75.52 106.12 77.05 106.33 77.81 L 103.31 79.91 C 103.94 78.44 104.40 76.92 104.67 75.35 C 105.34 74.15 106.02 72.95 106.71 71.76 L 105.34 71.20 C 106.69 69.58 107.13 67.59 106.04 65.71 C 107.27 65.33 108.50 64.93 109.73 64.51 C 109.43 62.42 108.44 60.41 108.88 58.26 C 108.28 58.48 107.07 58.92 106.47 59.15 C 108.76 57.61 106.37 56.27 105.13 55.16 M 107.93 66.00 C 107.28 67.27 107.24 68.54 107.82 69.81 C 110.07 70.59 110.29 64.71 107.93 66.00 M 32.42 68.66 C 31.66 69.63 32.06 72.69 33.63 72.18 C 33.91 71.19 34.05 68.08 32.42 68.66 M 34.99 70.01 L 34.12 70.33 L 36.57 71.50 C 35.54 72.10 34.47 72.62 33.48 73.30 C 32.40 74.82 34.12 76.33 34.63 77.71 C 34.85 79.33 35.29 82.75 37.85 81.41 C 35.84 83.41 37.86 84.98 39.23 86.40 C 39.80 88.15 41.16 89.35 42.58 90.41 C 43.79 91.52 44.52 94.21 46.64 93.36 C 46.10 95.21 48.41 96.23 49.89 95.95 C 49.47 95.55 48.63 94.74 48.21 94.34 C 47.99 93.96 47.54 93.20 47.32 92.82 C 45.75 92.10 43.70 91.56 44.22 89.31 C 46.09 90.22 47.86 91.39 48.90 93.25 C 50.21 93.76 51.41 94.67 52.83 94.86 C 53.40 93.06 50.68 92.92 49.65 92.14 C 47.59 89.88 45.35 87.79 43.21 85.60 C 42.49 84.29 41.59 83.09 40.61 81.96 C 40.13 80.36 39.24 78.96 38.13 77.73 C 38.23 77.43 38.43 76.84 38.53 76.54 C 37.93 75.54 37.28 74.56 36.80 73.50 C 36.42 72.08 37.60 68.68 34.99 70.01 M 107.56 70.69 C 107.59 72.12 106.16 73.50 106.70 74.84 C 108.70 75.30 109.77 70.43 107.56 70.69 M 95.67 88.45 C 94.42 89.39 93.21 90.40 92.04 91.45 C 90.79 92.29 89.49 93.13 88.61 94.40 C 86.68 94.39 85.10 95.35 84.04 96.98 L 82.58 95.39 C 82.93 96.63 83.29 97.87 83.78 99.06 C 82.70 99.62 81.64 100.18 80.58 100.76 C 80.06 99.20 80.53 98.47 81.98 98.58 C 82.09 97.97 82.31 96.77 82.43 96.16 C 81.71 96.76 80.28 97.95 79.57 98.54 C 79.28 98.22 78.71 97.58 78.42 97.26 L 78.42 98.38 C 76.01 99.13 71.35 97.04 71.16 100.82 L 73.48 99.60 C 73.92 99.96 74.79 100.68 75.23 101.03 C 74.43 101.15 72.82 101.37 72.02 101.48 C 69.52 100.45 66.53 102.68 64.53 100.18 C 64.69 100.83 65.03 102.15 65.19 102.80 C 66.55 102.73 67.91 102.64 69.27 102.53 C 71.13 102.69 73.28 103.29 74.66 101.61 C 75.18 103.73 76.96 102.21 78.16 102.08 C 80.28 101.44 82.63 101.40 84.36 99.82 C 86.03 99.70 88.17 99.49 88.46 97.43 L 89.86 97.83 C 92.21 95.65 96.82 94.58 96.66 90.83 C 96.05 91.45 94.84 92.70 94.24 93.32 C 92.56 94.12 91.22 95.39 89.96 96.72 C 89.56 96.51 88.76 96.09 88.36 95.89 C 89.99 94.45 91.63 93.02 93.49 91.89 C 94.30 90.30 96.05 89.89 97.57 89.28 C 97.52 88.82 97.42 87.89 97.38 87.43 C 97.82 87.28 98.69 86.99 99.13 86.84 C 99.00 83.50 96.35 87.20 95.67 88.45 M 100.41 87.31 C 100.70 87.60 100.70 87.60 100.41 87.31 M 99.31 88.48 C 98.20 89.23 97.52 90.55 96.95 91.72 C 98.32 92.27 100.45 90.05 99.88 88.61 L 99.31 88.48 M 54.09 95.69 C 55.37 96.58 56.62 97.50 57.86 98.43 C 58.27 98.28 59.09 97.99 59.50 97.84 C 62.21 98.25 60.08 100.12 59.93 101.42 C 61.57 101.72 63.22 101.96 64.88 102.15 C 64.02 101.62 63.15 101.13 62.25 100.67 C 62.54 100.04 62.90 99.44 63.31 98.88 C 65.56 100.92 68.46 100.17 71.12 99.64 C 69.80 98.40 68.12 98.49 66.50 98.73 C 65.02 98.48 63.53 98.30 62.04 98.13 C 60.66 97.23 59.11 96.61 57.45 96.55 C 56.30 95.79 55.13 95.04 53.97 94.30 C 54.00 94.65 54.06 95.35 54.09 95.69 M 50.83 96.04 C 50.53 98.26 53.05 98.88 54.76 98.81 C 55.71 100.03 58.17 102.06 59.35 99.99 C 58.78 99.30 58.01 99.11 57.04 99.43 C 56.30 98.67 55.56 97.91 54.83 97.15 C 54.44 97.32 53.66 97.66 53.28 97.83 C 52.74 97.26 51.67 96.13 51.13 95.56 L 50.83 96.04 Z" />
<path fill="#000000" opacity="1.00" d=" M 59.50 28.28 C 62.66 27.75 58.90 32.11 57.46 30.42 C 56.63 29.13 58.63 28.56 59.50 28.28 Z" />
<path fill="#000000" opacity="1.00" d=" M 53.38 32.58 C 52.38 31.25 55.78 28.69 56.21 30.47 C 55.59 31.35 54.70 33.14 53.38 32.58 Z" />
<path fill="#000000" opacity="1.00" d=" M 49.05 34.81 C 49.30 33.63 50.50 31.28 51.96 32.19 C 51.71 33.38 50.54 35.80 49.05 34.81 Z" />
<path fill="#000000" opacity="1.00" d=" M 45.48 37.90 C 44.70 36.63 47.49 33.53 48.15 35.36 C 47.58 36.31 46.89 38.30 45.48 37.90 Z" />
<path fill="#000000" opacity="1.00" d=" M 100.37 43.37 C 100.66 43.66 100.66 43.66 100.37 43.37 Z" />
<path fill="#000000" opacity="1.00" d=" M 101.68 44.23 C 105.10 44.35 100.14 47.27 101.68 44.23 Z" />
<path fill="#000000" opacity="1.00" d=" M 104.94 49.41 C 103.81 51.04 101.22 47.18 103.00 46.52 C 104.10 47.13 104.74 48.10 104.94 49.41 Z" />
<path fill="#000000" opacity="1.00" d=" M 63.52 49.45 C 67.70 48.37 72.43 48.30 76.19 50.69 C 80.71 53.40 83.06 58.85 82.77 64.01 C 83.18 69.46 80.75 75.24 75.93 78.05 C 72.23 80.41 67.65 79.78 63.53 79.27 C 63.57 69.33 63.59 59.39 63.52 49.45 Z" />
<path fill="#000000" opacity="1.00" d=" M 33.20 60.53 C 34.01 57.79 36.04 62.90 34.10 63.07 C 33.88 62.43 33.43 61.16 33.20 60.53 Z" />
<path fill="#000000" opacity="1.00" d=" M 108.43 63.02 C 107.62 65.32 104.83 60.82 106.99 60.92 C 107.35 61.44 108.07 62.49 108.43 63.02 Z" />
<path fill="#000000" opacity="1.00" d=" M 8.67 72.33 C 7.55 68.99 5.79 64.57 9.04 61.82 C 9.25 63.25 9.05 64.81 9.78 66.12 C 10.80 69.33 13.76 71.08 16.70 72.27 C 17.03 73.74 17.37 75.22 17.73 76.68 C 15.49 74.66 12.84 73.18 9.89 72.48 C 10.47 74.33 10.72 76.36 11.80 78.01 C 13.35 80.11 16.03 80.65 18.33 81.50 C 19.04 83.54 19.81 85.55 20.61 87.55 C 17.05 84.59 12.40 83.66 7.92 84.72 C 9.42 86.83 10.69 89.36 13.09 90.59 C 15.80 92.09 18.96 91.42 21.88 91.22 C 23.19 93.59 24.58 95.91 26.08 98.17 C 22.53 96.05 18.35 95.74 14.49 97.21 L 13.72 97.41 C 11.22 93.96 5.94 92.02 5.96 87.05 C 5.28 84.28 8.52 83.84 10.35 83.06 C 8.57 79.87 6.29 75.84 8.67 72.33 Z" />
<path fill="#000000" opacity="1.00" d=" M 34.43 74.25 C 35.89 73.25 38.04 76.75 36.23 77.16 C 35.33 76.56 33.92 75.47 34.43 74.25 Z" />
<path fill="#000000" opacity="1.00" d=" M 36.45 79.45 C 36.79 79.79 36.79 79.79 36.45 79.45 Z" />
<path fill="#000000" opacity="1.00" d=" M 38.24 80.24 C 38.57 80.57 38.57 80.57 38.24 80.24 Z" />
<path fill="#000000" opacity="1.00" d=" M 41.46 86.73 C 40.44 85.25 36.27 83.39 39.52 82.06 C 40.19 82.99 40.90 83.88 41.64 84.76 C 41.56 85.02 41.40 85.53 41.32 85.79 C 42.52 86.51 43.56 87.42 44.45 88.51 C 43.17 88.64 41.91 88.48 40.66 88.23 C 40.86 87.85 41.26 87.10 41.46 86.73 Z" />
<path fill="#000000" opacity="1.00" d=" M 86.53 96.20 C 89.24 94.86 87.07 98.90 85.54 98.77 C 83.73 98.51 85.74 96.50 86.53 96.20 Z" />
<path fill="#000000" opacity="1.00" d=" M 77.96 99.42 C 78.64 100.11 78.64 100.11 77.96 99.42 Z" />
<path fill="#000000" opacity="1.00" d=" M 76.20 100.41 C 76.81 101.14 76.81 101.14 76.20 100.41 Z" />
</g>
<g id="#ffffffff">
<path fill="#ffffff" opacity="1.00" d=" M 34.24 21.84 C 33.68 19.93 34.49 18.00 35.06 16.20 C 37.17 18.50 39.23 21.37 38.07 24.67 C 38.91 24.91 39.75 25.15 40.60 25.38 C 43.76 24.10 46.47 26.04 48.51 28.30 C 44.89 29.65 41.19 28.98 38.06 26.84 C 37.08 27.76 36.09 28.68 35.11 29.60 C 38.40 28.62 41.56 29.72 43.97 32.05 C 40.52 33.69 36.66 33.66 33.47 31.47 C 32.29 32.70 31.12 33.95 29.94 35.18 C 33.33 33.49 36.74 34.82 39.46 37.11 C 36.04 39.05 32.16 38.85 28.86 36.80 C 27.90 38.13 26.92 39.45 25.94 40.77 C 27.59 40.36 29.21 39.48 30.95 39.61 C 32.69 40.14 34.22 41.15 35.78 42.04 C 32.48 44.05 28.62 44.26 25.18 42.47 C 24.40 43.85 23.61 45.22 22.81 46.58 C 26.02 45.52 29.51 45.87 31.94 48.41 C 28.86 50.01 25.37 50.14 22.18 48.81 C 21.52 50.59 20.85 52.37 20.17 54.15 C 23.17 52.42 26.53 52.62 29.61 54.02 C 26.96 56.49 23.45 57.70 19.88 56.53 C 19.40 58.58 18.91 60.63 18.39 62.67 C 19.86 61.56 21.25 60.30 22.95 59.53 C 24.87 59.29 26.78 59.83 28.67 60.13 C 26.38 63.43 22.53 64.87 18.60 64.48 C 18.53 66.28 18.43 68.09 18.34 69.89 C 20.46 66.32 24.16 64.34 28.36 64.69 C 26.86 69.02 23.02 71.65 18.63 72.40 C 18.84 73.94 19.04 75.48 19.23 77.02 C 20.29 73.55 23.36 71.70 26.58 70.52 C 26.47 75.01 24.14 78.99 20.11 81.04 C 20.37 82.00 20.89 83.93 21.16 84.90 C 22.14 81.87 23.98 79.33 26.62 77.53 C 28.76 82.10 26.83 86.93 23.31 90.11 C 23.88 91.17 24.45 92.23 25.03 93.29 C 25.51 90.68 26.55 88.23 27.96 85.99 C 29.21 88.20 30.85 90.34 31.13 92.94 C 31.41 95.44 30.37 97.80 29.52 100.08 C 30.49 101.23 31.47 102.38 32.43 103.54 C 31.59 100.12 32.07 96.59 33.93 93.58 C 38.28 97.15 39.88 103.04 37.83 108.32 C 39.84 109.87 41.87 111.39 43.92 112.89 C 42.83 110.70 41.25 108.59 41.16 106.05 C 41.27 103.77 42.16 101.63 42.86 99.48 C 45.02 101.70 47.48 103.93 48.28 107.04 C 48.75 109.60 48.32 112.21 48.09 114.79 C 50.72 115.83 53.35 116.87 55.99 117.88 C 54.31 115.67 52.05 113.67 51.41 110.86 C 50.56 107.64 51.92 104.46 52.96 101.46 C 55.13 103.55 57.48 105.69 58.53 108.60 C 59.63 111.77 59.22 115.18 58.50 118.38 C 61.05 118.93 63.61 119.46 66.17 119.98 C 63.96 117.63 61.02 115.42 60.73 111.94 C 60.14 109.12 61.01 106.33 61.73 103.62 C 64.37 105.79 67.21 108.11 68.24 111.51 C 69.20 114.22 68.81 117.12 68.45 119.90 C 68.93 120.16 69.90 120.68 70.38 120.94 C 67.72 123.45 65.82 126.87 62.46 128.53 C 59.22 130.15 55.54 129.16 52.22 128.40 C 54.54 124.90 57.96 122.47 61.50 120.33 C 57.06 119.18 55.18 124.09 51.49 125.32 C 47.96 126.83 44.20 125.28 40.84 124.07 C 43.49 121.03 46.81 118.54 50.84 117.75 C 49.60 117.26 48.37 116.77 47.13 116.28 C 44.41 118.18 41.44 120.38 37.94 120.14 C 35.39 119.71 33.15 118.33 30.95 117.06 C 33.98 114.78 37.49 113.17 41.35 113.11 C 39.72 111.96 38.10 110.82 36.48 109.66 C 34.17 111.20 31.87 113.06 28.99 113.30 C 26.04 113.60 23.48 111.87 21.16 110.30 C 24.82 107.35 29.50 106.04 34.09 107.40 C 32.01 105.43 30.02 103.36 28.16 101.19 C 25.79 101.93 23.41 103.01 20.87 102.79 C 18.16 102.70 16.16 100.63 14.06 99.18 L 14.02 98.82 C 14.14 98.42 14.38 97.61 14.49 97.21 C 18.35 95.74 22.53 96.05 26.08 98.17 C 24.58 95.91 23.19 93.59 21.88 91.22 C 18.96 91.42 15.80 92.09 13.09 90.59 C 10.69 89.36 9.42 86.83 7.92 84.72 C 12.40 83.66 17.05 84.59 20.61 87.55 C 19.81 85.55 19.04 83.54 18.33 81.50 C 16.03 80.65 13.35 80.11 11.80 78.01 C 10.72 76.36 10.47 74.33 9.89 72.48 C 12.84 73.18 15.49 74.66 17.73 76.68 C 17.37 75.22 17.03 73.74 16.70 72.27 C 13.76 71.08 10.80 69.33 9.78 66.12 C 9.48 64.74 9.80 63.63 10.73 62.77 C 13.20 63.76 15.08 65.67 16.90 67.54 C 16.88 66.67 16.85 64.93 16.83 64.06 C 15.12 62.53 12.97 61.18 12.19 58.90 C 11.69 56.80 12.24 54.63 12.40 52.53 C 14.40 54.17 16.16 56.07 17.86 58.01 C 17.93 57.38 18.06 56.11 18.13 55.48 C 16.72 53.79 14.93 52.21 14.45 49.97 C 14.32 48.06 15.18 46.26 15.61 44.44 C 17.21 46.31 18.59 48.36 19.82 50.49 C 20.12 49.52 20.41 48.55 20.71 47.58 C 19.63 45.86 18.05 44.20 18.10 42.04 C 18.40 40.52 19.16 39.16 19.77 37.76 C 20.87 39.67 21.84 41.64 22.66 43.69 C 23.16 42.73 23.65 41.78 24.15 40.83 C 23.04 39.31 21.77 37.86 21.07 36.08 C 21.03 34.38 21.62 32.76 21.97 31.13 C 23.08 32.39 24.16 33.67 25.23 34.98 C 25.26 35.88 25.34 37.69 25.37 38.60 C 26.22 37.54 27.05 36.46 27.88 35.39 C 24.96 32.86 23.99 29.07 25.72 25.53 C 27.85 27.77 29.41 30.52 29.02 33.74 C 30.15 32.49 31.29 31.25 32.44 30.02 C 31.44 28.68 30.21 27.46 29.56 25.90 C 29.37 24.11 29.74 22.32 29.94 20.54 C 32.45 22.51 34.23 25.26 33.91 28.59 C 34.97 27.64 36.03 26.70 37.11 25.76 C 36.10 24.49 34.93 23.32 34.24 21.84 Z" />
<path fill="#ffffff" opacity="1.00" d=" M 102.94 24.65 C 101.77 21.25 103.85 18.32 106.20 16.11 C 106.51 17.97 107.20 19.89 106.81 21.80 C 106.08 23.26 104.92 24.44 103.92 25.71 C 105.02 26.70 106.12 27.71 107.20 28.73 C 106.80 25.52 108.46 22.78 110.55 20.51 C 110.96 21.93 111.46 23.35 111.59 24.83 C 111.39 26.93 109.72 28.42 108.56 30.03 C 109.69 31.24 110.82 32.46 111.92 33.70 C 111.61 30.48 113.15 27.75 115.39 25.61 C 115.67 27.37 116.48 29.15 116.15 30.97 C 115.56 32.69 114.18 33.96 113.09 35.37 C 113.93 36.43 114.78 37.49 115.64 38.54 C 115.68 37.64 115.76 35.85 115.80 34.95 C 116.81 33.68 117.84 32.43 118.90 31.19 C 119.32 32.82 120.04 34.43 119.88 36.14 C 119.29 37.89 117.98 39.24 116.90 40.69 C 117.35 41.69 117.81 42.68 118.26 43.68 C 119.14 41.65 120.13 39.68 121.24 37.77 C 121.84 39.17 122.54 40.54 122.91 42.03 C 122.92 44.20 121.33 45.90 120.28 47.65 C 120.60 48.56 120.92 49.47 121.24 50.39 C 122.44 48.31 123.79 46.33 125.25 44.42 C 125.72 46.26 126.84 48.07 126.56 50.03 C 125.97 52.23 124.25 53.83 122.85 55.53 C 123.01 56.34 123.17 57.16 123.34 57.98 C 124.91 56.00 126.63 54.14 128.51 52.45 C 128.75 54.32 129.20 56.20 129.02 58.10 C 128.55 60.80 126.06 62.37 124.17 64.08 C 124.16 64.94 124.12 66.66 124.11 67.51 C 126.11 65.27 128.50 63.41 131.33 62.35 C 130.94 64.48 131.15 66.90 129.81 68.74 C 128.46 70.54 126.24 71.27 124.31 72.26 C 123.98 73.73 123.64 75.21 123.28 76.68 C 125.51 74.60 128.21 73.15 131.20 72.51 C 130.60 74.36 130.25 76.34 129.20 78.01 C 127.64 80.14 124.90 80.67 122.58 81.54 C 121.93 83.55 121.21 85.55 120.46 87.52 C 121.92 86.59 123.36 85.58 124.94 84.86 C 127.23 84.42 130.80 83.75 132.38 85.84 L 132.17 86.20 C 130.80 88.07 129.37 90.20 127.06 90.96 C 124.53 91.98 121.76 91.38 119.13 91.23 C 117.83 93.57 116.43 95.86 114.95 98.10 C 118.99 95.66 123.73 95.99 127.97 97.70 C 126.02 99.73 124.00 102.07 121.11 102.66 C 118.29 103.27 115.63 101.91 112.93 101.38 C 110.81 103.26 108.98 105.45 106.92 107.39 C 111.52 106.04 116.19 107.36 119.87 110.30 C 117.53 111.86 114.94 113.61 111.98 113.29 C 109.08 113.02 106.77 111.14 104.40 109.66 C 102.85 110.83 101.28 111.96 99.72 113.10 C 103.54 113.19 107.04 114.77 110.04 117.07 C 107.53 118.48 104.92 120.22 101.92 120.17 C 98.84 119.87 96.31 117.98 93.87 116.26 C 92.60 116.79 91.34 117.33 90.07 117.87 C 94.20 118.46 97.50 121.04 100.18 124.07 C 96.80 125.28 93.00 126.85 89.46 125.29 C 85.82 124.05 83.89 119.24 79.52 120.32 C 83.04 122.48 86.46 124.90 88.79 128.40 C 85.68 129.10 82.33 130.03 79.21 128.83 C 75.62 127.46 73.67 123.92 71.01 121.38 C 73.17 119.37 71.88 116.41 72.28 113.88 C 72.48 109.41 76.07 106.25 79.21 103.53 C 79.99 106.26 80.92 109.10 80.28 111.97 C 79.98 115.44 77.02 117.62 74.83 119.98 C 77.42 119.46 80.00 118.93 82.58 118.37 C 81.90 115.61 81.39 112.73 82.12 109.91 C 82.78 106.37 85.58 103.85 88.04 101.45 C 89.00 104.48 90.53 107.68 89.57 110.92 C 88.89 113.70 86.70 115.70 85.02 117.89 C 87.70 116.85 90.38 115.80 93.02 114.65 C 92.05 110.67 91.97 106.14 94.88 102.91 C 95.93 101.97 96.79 99.79 98.46 100.31 C 100.72 104.47 99.79 109.21 97.04 112.86 C 99.12 111.38 101.17 109.87 103.19 108.33 C 101.18 103.08 102.63 97.12 107.06 93.61 C 109.00 96.49 109.12 100.00 108.68 103.33 C 109.59 102.27 110.50 101.21 111.41 100.15 C 110.64 97.81 109.63 95.42 109.88 92.90 C 110.17 90.32 111.77 88.17 113.04 85.99 C 114.41 88.22 115.47 90.63 115.98 93.20 C 116.56 92.18 117.13 91.15 117.71 90.12 C 114.12 86.97 112.32 82.10 114.37 77.52 C 116.67 79.29 118.70 81.42 119.84 84.13 C 120.23 83.13 120.62 82.14 121.02 81.14 C 119.30 79.85 117.36 78.73 116.13 76.92 C 115.05 74.97 114.91 72.68 114.45 70.54 C 117.80 71.64 120.64 73.79 122.04 77.10 C 122.04 75.57 122.16 74.03 122.03 72.50 C 117.93 71.27 114.01 69.07 112.67 64.68 C 116.88 64.34 120.54 66.36 122.67 69.92 C 122.54 68.11 122.41 66.30 122.30 64.49 C 118.40 64.83 114.54 63.42 112.34 60.07 C 116.03 58.75 119.68 59.69 122.46 62.36 C 122.02 60.42 121.59 58.47 121.17 56.53 C 117.59 57.70 114.06 56.51 111.40 54.01 C 114.54 52.60 117.99 52.34 120.91 54.39 C 120.19 52.54 119.50 50.68 118.82 48.81 C 115.54 50.20 111.91 50.07 108.89 48.09 C 111.65 46.05 115.00 45.50 118.26 46.59 C 117.39 45.19 116.51 43.80 115.65 42.40 C 112.81 43.96 107.56 44.92 106.03 41.48 C 108.66 39.27 112.03 39.36 115.01 40.72 C 114.05 39.42 113.09 38.12 112.15 36.80 C 108.85 38.83 104.97 39.08 101.55 37.12 C 104.20 34.98 107.40 33.47 110.85 34.81 C 109.74 33.72 108.64 32.62 107.54 31.52 C 104.31 33.68 100.45 33.67 97.00 32.05 C 99.43 29.74 102.58 28.62 105.88 29.59 C 104.89 28.67 103.91 27.76 102.94 26.84 C 99.81 28.98 96.12 29.65 92.51 28.31 C 94.53 26.03 97.25 24.08 100.41 25.38 C 101.25 25.14 102.09 24.89 102.94 24.65 Z" />
<path fill="#ffffff" opacity="1.00" d=" M 92.96 18.57 C 96.08 18.22 99.42 19.44 100.47 22.67 L 101.31 22.64 C 100.95 23.40 100.60 24.15 100.24 24.91 C 96.95 23.93 94.13 21.87 92.96 18.57 Z" />
<path fill="#ffffff" opacity="1.00" d=" M 39.91 22.96 C 41.72 20.10 44.52 17.83 48.15 18.60 C 46.86 21.88 44.04 23.93 40.73 24.88 C 40.45 24.24 40.18 23.60 39.91 22.96 Z" />
<path fill="#ffffff" opacity="1.00" d=" M 67.57 25.51 C 70.15 24.94 72.60 26.97 75.04 25.12 C 73.86 26.26 72.62 27.32 71.44 28.47 C 73.78 28.21 76.19 28.15 78.23 29.58 C 77.75 28.50 76.81 27.24 77.88 26.18 C 80.81 27.09 84.19 27.27 86.51 29.50 C 89.27 28.93 90.61 32.62 93.45 32.03 C 92.90 32.59 92.34 33.15 91.78 33.70 C 90.16 33.08 88.97 32.00 88.22 30.46 C 87.73 30.66 86.75 31.04 86.26 31.23 C 86.13 31.52 85.87 32.09 85.74 32.38 L 87.92 32.04 C 88.71 32.95 89.49 33.86 90.26 34.78 C 90.60 34.64 91.29 34.34 91.64 34.19 L 91.99 36.22 C 92.60 35.16 93.21 34.09 93.83 33.03 C 95.59 34.75 97.74 36.15 98.84 38.43 L 97.53 38.55 C 96.60 36.71 94.82 35.60 93.38 34.23 C 93.10 36.01 93.60 37.62 95.56 37.90 L 95.29 39.64 C 93.92 38.58 92.62 37.44 91.39 36.21 C 90.08 35.54 88.83 34.76 87.66 33.85 C 86.13 33.38 84.61 32.73 83.62 31.40 C 83.14 31.57 82.18 31.93 81.70 32.10 L 81.50 31.07 C 82.17 30.74 83.51 30.07 84.18 29.74 L 84.12 29.30 C 82.13 28.84 79.94 27.58 77.97 28.79 C 78.84 29.03 80.57 29.50 81.44 29.74 L 81.44 31.02 C 77.76 30.07 74.02 29.48 70.22 29.30 C 69.20 29.49 67.15 29.87 66.13 30.06 C 67.43 28.96 68.99 28.26 70.67 27.98 C 70.33 27.50 69.67 26.54 69.34 26.06 L 67.37 28.04 C 67.42 27.40 67.52 26.14 67.57 25.51 Z" />
<path fill="#ffffff" opacity="1.00" d=" M 74.78 25.83 C 76.80 24.30 75.82 29.03 74.58 26.78 L 74.78 25.83 Z" />
<path fill="#ffffff" opacity="1.00" d=" M 60.68 26.54 C 60.88 26.69 61.28 26.98 61.49 27.13 C 63.05 26.52 64.70 26.22 66.35 25.91 L 66.78 27.95 C 66.14 27.62 64.87 26.97 64.23 26.65 L 63.99 27.83 C 63.45 27.77 62.37 27.67 61.83 27.61 C 62.08 28.21 62.58 29.40 62.83 30.00 L 65.23 28.09 C 65.13 28.70 64.93 29.93 64.83 30.54 C 63.61 30.49 62.40 30.45 61.19 30.37 C 59.92 31.35 58.48 31.98 56.84 31.80 C 54.62 33.99 51.57 35.03 49.03 36.78 C 48.16 38.04 47.02 39.06 45.68 39.81 C 44.85 41.08 43.93 42.29 42.84 43.36 C 41.96 44.88 40.88 46.28 39.69 47.58 L 39.20 45.26 L 40.45 44.97 C 41.46 42.09 44.98 40.66 44.79 37.30 C 43.01 38.87 41.57 40.79 39.74 42.30 C 39.74 42.88 39.72 44.03 39.71 44.60 C 39.23 44.20 38.26 43.40 37.77 43.00 C 38.88 41.78 39.98 40.55 41.13 39.36 C 41.73 38.43 42.39 37.55 43.06 36.68 C 44.60 36.54 45.15 35.00 46.17 34.12 C 47.92 32.32 50.25 31.24 52.54 30.31 C 53.83 29.18 55.34 28.36 57.08 28.30 C 58.27 27.69 59.48 27.12 60.68 26.54 M 59.50 28.28 C 58.63 28.56 56.63 29.13 57.46 30.42 C 58.90 32.11 62.66 27.75 59.50 28.28 M 53.38 32.58 C 54.70 33.14 55.59 31.35 56.21 30.47 C 55.78 28.69 52.38 31.25 53.38 32.58 M 49.05 34.81 C 50.54 35.80 51.71 33.38 51.96 32.19 C 50.50 31.28 49.30 33.63 49.05 34.81 M 45.48 37.90 C 46.89 38.30 47.58 36.31 48.15 35.36 C 47.49 33.53 44.70 36.63 45.48 37.90 Z" />
<path fill="#ffffff" opacity="1.00" d=" M 64.62 32.69 C 69.60 32.18 74.66 32.16 79.52 33.52 C 80.84 34.00 82.17 34.43 83.52 34.82 L 83.34 35.13 C 86.46 35.78 88.92 37.89 91.42 39.72 C 92.36 40.72 93.33 41.71 94.32 42.68 C 99.30 48.31 102.65 55.72 102.53 63.32 C 100.71 62.17 98.97 59.61 101.94 58.45 C 100.71 58.31 99.66 58.74 98.82 59.63 C 97.00 46.34 84.57 35.66 71.18 35.72 C 73.20 32.21 69.42 37.51 67.97 35.72 C 67.96 33.54 66.59 34.73 65.99 35.88 C 61.98 37.02 57.92 38.31 54.55 40.87 C 53.82 39.83 53.06 38.82 52.29 37.82 C 56.00 35.69 59.90 33.84 64.11 32.91 C 64.22 33.49 64.46 34.64 64.58 35.22 C 64.59 34.59 64.61 33.33 64.62 32.69 Z" />
<path fill="#ffffff" opacity="1.00" d=" M 51.57 38.30 C 52.10 39.72 51.18 40.92 50.31 41.96 C 51.45 41.49 52.65 41.10 53.87 41.49 C 49.02 44.48 45.87 49.43 43.76 54.60 C 43.44 55.57 43.09 56.53 42.71 57.48 C 42.55 59.95 42.32 62.43 41.85 64.87 C 42.45 67.99 42.84 71.14 43.81 74.18 C 44.27 75.08 44.71 76.00 45.14 76.91 C 47.39 81.46 50.94 85.19 55.13 88.00 C 60.56 91.57 67.07 93.26 73.56 92.57 C 74.42 93.11 75.91 94.36 76.06 92.52 C 81.88 90.44 88.06 88.08 91.93 82.97 C 96.72 77.72 99.55 70.61 99.29 63.48 C 101.15 62.61 104.20 63.61 102.79 66.53 L 100.63 66.39 C 101.07 66.54 101.94 66.85 102.37 67.01 C 102.37 67.99 102.35 69.97 102.35 70.96 C 101.66 70.51 100.28 69.60 99.59 69.15 C 100.34 69.89 101.11 70.60 101.90 71.30 C 101.57 72.44 101.25 73.57 100.92 74.71 C 97.84 82.95 91.67 89.94 83.57 93.50 C 81.97 94.05 80.36 94.60 78.74 95.11 C 74.54 96.04 70.21 95.90 65.95 95.70 C 59.60 95.11 54.03 91.68 49.12 87.84 C 47.97 86.63 46.84 85.41 45.70 84.20 C 41.92 79.54 39.84 73.78 38.81 67.93 C 38.35 64.07 39.05 60.24 39.63 56.43 C 40.11 54.96 40.55 53.48 40.99 52.00 C 43.07 46.44 47.33 42.27 51.57 38.30 Z" />
<path fill="#ffffff" opacity="1.00" d=" M 95.47 39.93 C 95.75 39.39 96.30 38.33 96.58 37.79 C 96.69 38.42 96.92 39.69 97.03 40.33 C 98.30 41.08 99.52 41.93 100.77 42.72 L 99.83 40.29 C 99.37 40.06 98.45 39.61 97.99 39.38 C 98.32 39.04 98.98 38.34 99.30 37.99 C 101.50 40.58 103.82 43.26 104.68 46.64 C 104.99 46.73 105.62 46.92 105.93 47.02 L 105.30 48.48 C 105.67 48.60 106.42 48.83 106.80 48.94 C 106.07 50.36 106.39 51.43 107.76 52.16 C 107.50 53.19 106.97 55.24 106.71 56.26 C 106.75 55.40 106.84 53.68 106.88 52.81 L 106.14 52.45 C 105.86 52.05 105.30 51.26 105.01 50.87 C 104.74 50.99 104.20 51.23 103.92 51.35 C 104.36 52.05 105.23 53.45 105.67 54.15 C 105.12 54.15 104.01 54.14 103.46 54.14 C 104.16 51.05 101.38 49.29 101.02 46.51 C 99.04 44.42 97.09 42.30 95.47 39.93 M 100.37 43.37 C 100.66 43.66 100.66 43.66 100.37 43.37 M 101.68 44.23 C 100.14 47.27 105.10 44.35 101.68 44.23 M 104.94 49.41 C 104.74 48.10 104.10 47.13 103.00 46.52 C 101.22 47.18 103.81 51.04 104.94 49.41 Z" />
<path fill="#ffffff" opacity="1.00" d=" M 37.78 44.16 C 39.56 44.36 38.14 46.80 37.43 47.51 C 37.02 47.68 36.20 48.02 35.79 48.19 C 35.48 46.70 36.50 44.92 37.78 44.16 Z" />
<path fill="#ffffff" opacity="1.00" d=" M 53.52 46.50 C 62.19 47.34 71.28 45.42 79.62 48.50 C 88.85 52.51 91.21 65.24 86.40 73.45 C 83.61 78.47 77.94 81.17 72.38 81.59 C 67.61 81.87 62.82 81.52 58.04 81.75 C 56.28 81.78 54.34 82.10 52.81 80.99 C 54.70 80.35 58.24 80.78 58.35 78.04 C 58.62 69.71 58.37 61.36 58.48 53.02 C 58.27 51.38 58.96 48.84 56.84 48.25 C 55.98 48.08 54.26 47.72 53.40 47.54 L 53.52 46.50 M 63.52 49.45 C 63.59 59.39 63.57 69.33 63.53 79.27 C 67.65 79.78 72.23 80.41 75.93 78.05 C 80.75 75.24 83.18 69.46 82.77 64.01 C 83.06 58.85 80.71 53.40 76.19 50.69 C 72.43 48.30 67.70 48.37 63.52 49.45 Z" />
<path fill="#ffffff" opacity="1.00" d=" M 39.29 47.60 C 40.90 48.36 38.28 51.88 36.68 51.72 C 36.33 50.06 38.45 48.87 39.29 47.60 Z" />
<path fill="#ffffff" opacity="1.00" d=" M 34.77 48.43 C 35.44 48.98 36.10 49.55 36.75 50.12 L 34.91 50.60 C 35.12 51.20 35.56 52.39 35.78 52.98 C 34.96 53.99 34.13 54.98 33.27 55.95 C 34.01 56.86 34.78 57.75 35.58 58.61 C 35.65 56.54 34.29 52.17 38.34 53.09 C 37.86 53.64 36.90 54.74 36.43 55.29 C 36.93 57.01 36.69 58.64 35.40 59.91 C 36.55 61.39 36.20 63.01 35.43 64.56 C 36.00 65.82 36.34 67.14 36.42 68.52 C 34.41 67.73 34.58 65.25 34.13 63.54 C 32.01 64.72 32.64 66.20 34.25 67.65 C 33.32 67.38 32.39 67.10 31.47 66.81 C 31.75 65.49 32.06 64.18 32.43 62.88 C 31.47 60.93 31.41 57.77 34.63 58.08 C 34.01 57.70 32.78 56.93 32.16 56.54 C 32.77 55.35 33.20 54.04 34.13 53.05 C 34.27 51.50 34.48 49.96 34.77 48.43 M 33.20 60.53 C 33.43 61.16 33.88 62.43 34.10 63.07 C 36.04 62.90 34.01 57.79 33.20 60.53 Z" />
<path fill="#ffffff" opacity="1.00" d=" M 280.54 50.60 C 291.46 47.55 303.19 54.73 306.90 65.12 C 310.15 74.34 308.69 85.64 301.75 92.85 C 294.00 101.68 279.14 102.48 270.55 94.44 C 259.57 84.56 259.64 64.71 271.19 55.29 C 273.89 53.03 277.10 51.37 280.54 50.60 M 281.43 52.52 C 274.75 54.46 271.69 61.71 270.86 68.04 C 269.88 76.63 270.17 86.24 275.60 93.41 C 279.36 98.42 286.97 99.43 292.19 96.19 C 297.89 92.98 300.03 86.08 300.44 79.93 C 300.87 72.60 300.58 64.69 296.75 58.20 C 293.81 52.98 287.04 50.77 281.43 52.52 Z" />
<path fill="#ffffff" opacity="1.00" d=" M 386.51 50.61 C 397.20 47.61 408.72 54.42 412.65 64.49 C 416.34 74.05 414.75 86.03 407.25 93.37 C 399.71 101.39 386.10 102.29 377.58 95.32 C 365.57 85.79 365.28 64.95 377.23 55.25 C 379.91 53.02 383.10 51.38 386.51 50.61 M 387.45 52.51 C 380.74 54.45 377.67 61.75 376.85 68.10 C 375.89 76.66 376.19 86.23 381.58 93.38 C 385.32 98.40 392.92 99.44 398.14 96.21 C 403.87 93.02 406.02 86.11 406.43 79.95 C 406.87 72.65 406.58 64.78 402.81 58.30 C 399.89 53.02 393.09 50.76 387.45 52.51 Z" />
<path fill="#ffffff" opacity="1.00" d=" M 424.75 56.98 C 427.09 52.57 432.04 49.83 437.01 49.96 C 440.99 49.76 444.43 52.06 448.13 53.11 C 449.71 52.45 450.12 50.50 451.25 49.33 C 451.63 55.07 451.53 60.84 451.30 66.59 C 449.30 64.77 449.79 61.69 448.56 59.41 C 446.07 53.09 436.71 49.26 431.32 54.27 C 428.37 56.64 428.01 61.52 430.78 64.17 C 436.36 69.61 443.99 72.17 450.03 76.99 C 454.38 80.49 455.95 86.98 453.51 92.03 C 451.66 96.09 447.70 98.74 443.46 99.76 C 437.66 101.15 432.38 98.15 426.93 96.87 C 425.79 97.98 424.99 99.37 423.97 100.58 C 423.80 94.87 423.81 89.16 423.96 83.45 C 425.99 84.78 425.63 87.54 426.56 89.53 C 428.93 97.50 441.04 101.29 446.76 94.71 C 449.86 91.15 448.50 85.70 445.09 82.87 C 439.44 78.39 432.47 75.78 427.13 70.89 C 423.33 67.48 422.18 61.44 424.75 56.98 Z" />
<path fill="#ffffff" opacity="1.00" d=" M 159.31 51.09 C 165.90 50.88 172.50 51.04 179.09 51.00 C 179.58 51.14 180.55 51.42 181.03 51.56 C 178.85 52.10 176.33 51.96 174.49 53.44 C 173.59 54.77 173.62 56.43 173.59 57.98 C 173.58 63.35 173.63 68.72 173.57 74.09 C 178.65 69.37 183.68 64.60 188.44 59.56 C 189.92 57.78 192.00 55.90 191.68 53.35 C 190.58 51.75 188.29 52.17 186.75 51.41 C 192.94 50.56 199.29 51.07 205.53 51.13 C 201.61 52.32 197.85 54.06 194.97 57.05 C 189.95 62.12 185.00 67.28 180.13 72.49 C 187.27 79.47 193.94 86.92 201.23 93.75 C 203.99 96.51 207.88 97.36 211.33 98.91 C 203.71 99.13 196.08 98.94 188.46 99.00 L 188.58 98.40 C 190.15 97.85 192.95 97.36 192.35 94.97 C 191.67 93.33 190.32 92.12 189.13 90.86 C 183.91 85.66 178.86 80.30 173.61 75.13 C 173.59 80.75 173.60 86.37 173.59 91.98 C 173.71 93.70 173.38 95.94 175.12 96.98 C 176.67 97.95 178.52 98.01 180.28 98.17 L 180.31 99.00 C 173.54 99.00 166.76 99.00 159.99 99.00 L 160.04 98.20 C 162.59 98.12 166.50 97.89 166.58 94.47 C 166.95 84.31 166.62 74.13 166.73 63.96 C 166.63 60.67 167.05 57.32 166.37 54.08 C 164.78 51.71 161.51 52.45 159.31 51.09 Z" />
<path fill="#ffffff" opacity="1.00" d=" M 212.41 51.59 C 215.11 50.46 218.12 51.18 220.96 51.00 C 227.90 51.22 235.04 50.25 241.80 52.27 C 247.79 54.18 251.48 61.18 249.27 67.17 C 247.74 72.14 242.71 74.73 237.95 75.72 C 241.83 80.91 245.57 86.21 249.39 91.45 C 250.86 93.33 252.37 95.31 254.54 96.44 C 256.49 97.51 258.85 97.60 260.69 98.93 C 256.28 98.90 251.70 99.39 247.40 98.69 C 242.16 91.50 237.00 84.24 231.83 77.00 C 230.09 77.00 228.34 77.00 226.60 77.00 C 226.77 82.99 226.23 89.02 226.90 94.98 C 227.41 98.56 231.90 97.44 234.20 98.91 C 226.94 99.02 219.65 99.16 212.39 98.85 C 214.75 97.58 218.86 98.44 219.61 95.10 C 220.47 85.46 219.78 75.73 220.00 66.06 C 219.92 62.17 220.29 58.22 219.48 54.39 C 218.36 51.56 214.79 52.21 212.41 51.59 M 226.89 53.93 C 226.20 60.86 226.80 68.02 226.60 75.04 C 230.58 75.13 234.99 74.92 238.20 72.25 C 243.66 67.97 243.34 58.32 237.53 54.48 C 234.39 52.38 230.31 52.74 226.89 53.93 Z" />
<path fill="#ffffff" opacity="1.00" d=" M 311.31 51.08 C 315.58 50.86 319.86 51.06 324.14 51.00 C 334.02 62.99 343.60 75.23 353.52 87.20 C 353.56 77.79 353.51 68.38 353.55 58.97 C 353.47 57.10 353.64 54.99 352.48 53.38 C 351.14 51.76 348.76 52.15 346.92 51.86 L 346.78 51.00 C 352.56 51.37 358.55 50.23 364.20 51.61 C 361.30 51.91 356.57 52.04 356.72 56.13 C 356.36 70.92 356.84 85.73 356.48 100.51 C 353.88 98.36 351.96 95.54 349.82 92.97 C 341.33 82.58 332.90 72.15 324.38 61.78 C 324.42 71.53 324.40 81.28 324.39 91.03 C 324.40 92.69 324.42 94.39 324.94 96.00 C 326.35 98.44 329.56 97.74 331.86 98.35 C 326.29 99.86 320.25 98.57 314.50 99.00 L 314.62 98.16 C 316.60 97.98 318.94 98.07 320.42 96.47 C 321.55 94.51 321.30 92.12 321.41 89.95 C 321.31 79.33 321.55 68.69 321.30 58.07 C 319.54 53.95 315.30 52.25 311.31 51.08 Z" />
<path fill="#ffffff" opacity="1.00" d=" M 105.13 55.16 C 106.37 56.27 108.76 57.61 106.47 59.15 C 107.07 58.92 108.28 58.48 108.88 58.26 C 108.44 60.41 109.43 62.42 109.73 64.51 C 108.50 64.93 107.27 65.33 106.04 65.71 C 107.13 67.59 106.69 69.58 105.34 71.20 L 106.71 71.76 C 106.02 72.95 105.34 74.15 104.67 75.35 C 104.40 76.92 103.94 78.44 103.31 79.91 L 106.33 77.81 C 106.12 77.05 105.69 75.52 105.48 74.75 C 108.97 75.52 107.14 78.64 105.24 79.90 C 106.22 81.78 104.50 83.82 102.60 84.07 L 103.15 87.07 C 101.87 85.71 101.72 83.82 101.03 82.17 C 100.80 83.17 100.34 85.17 100.11 86.17 C 97.76 85.09 99.75 82.98 100.40 81.60 C 101.58 81.31 102.78 81.11 104.00 80.98 C 103.20 80.86 101.60 80.62 100.80 80.51 C 102.89 78.37 103.15 75.32 104.62 72.83 C 104.27 71.34 104.59 69.88 105.39 68.59 C 105.36 66.55 105.61 64.51 105.40 62.48 C 105.39 61.34 105.40 60.19 105.44 59.05 C 104.71 57.74 103.23 56.19 105.13 55.16 M 108.43 63.02 C 108.07 62.49 107.35 61.44 106.99 60.92 C 104.83 60.82 107.62 65.32 108.43 63.02 Z" />
<path fill="#ffffff" opacity="1.00" d=" M 107.93 66.00 C 110.29 64.71 110.07 70.59 107.82 69.81 C 107.24 68.54 107.28 67.27 107.93 66.00 Z" />
<path fill="#ffffff" opacity="1.00" d=" M 32.42 68.66 C 34.05 68.08 33.91 71.19 33.63 72.18 C 32.06 72.69 31.66 69.63 32.42 68.66 Z" />
<path fill="#ffffff" opacity="1.00" d=" M 34.99 70.01 C 37.60 68.68 36.42 72.08 36.80 73.50 C 37.28 74.56 37.93 75.54 38.53 76.54 C 38.43 76.84 38.23 77.43 38.13 77.73 C 39.24 78.96 40.13 80.36 40.61 81.96 C 41.59 83.09 42.49 84.29 43.21 85.60 C 45.35 87.79 47.59 89.88 49.65 92.14 C 50.68 92.92 53.40 93.06 52.83 94.86 C 51.41 94.67 50.21 93.76 48.90 93.25 C 47.86 91.39 46.09 90.22 44.22 89.31 C 43.70 91.56 45.75 92.10 47.32 92.82 C 47.54 93.20 47.99 93.96 48.21 94.34 C 48.63 94.74 49.47 95.55 49.89 95.95 C 48.41 96.23 46.10 95.21 46.64 93.36 C 44.52 94.21 43.79 91.52 42.58 90.41 C 41.16 89.35 39.80 88.15 39.23 86.40 C 37.86 84.98 35.84 83.41 37.85 81.41 C 35.29 82.75 34.85 79.33 34.63 77.71 C 34.12 76.33 32.40 74.82 33.48 73.30 C 34.47 72.62 35.54 72.10 36.57 71.50 L 34.12 70.33 L 34.99 70.01 M 34.43 74.25 C 33.92 75.47 35.33 76.56 36.23 77.16 C 38.04 76.75 35.89 73.25 34.43 74.25 M 36.45 79.45 C 36.79 79.79 36.79 79.79 36.45 79.45 M 38.24 80.24 C 38.57 80.57 38.57 80.57 38.24 80.24 M 41.46 86.73 C 41.26 87.10 40.86 87.85 40.66 88.23 C 41.91 88.48 43.17 88.64 44.45 88.51 C 43.56 87.42 42.52 86.51 41.32 85.79 C 41.40 85.53 41.56 85.02 41.64 84.76 C 40.90 83.88 40.19 82.99 39.52 82.06 C 36.27 83.39 40.44 85.25 41.46 86.73 Z" />
<path fill="#ffffff" opacity="1.00" d=" M 107.56 70.69 C 109.77 70.43 108.70 75.30 106.70 74.84 C 106.16 73.50 107.59 72.12 107.56 70.69 Z" />
<path fill="#ffffff" opacity="1.00" d=" M 95.67 88.45 C 96.35 87.20 99.00 83.50 99.13 86.84 C 98.69 86.99 97.82 87.28 97.38 87.43 C 97.42 87.89 97.52 88.82 97.57 89.28 C 96.05 89.89 94.30 90.30 93.49 91.89 C 91.63 93.02 89.99 94.45 88.36 95.89 C 88.76 96.09 89.56 96.51 89.96 96.72 C 91.22 95.39 92.56 94.12 94.24 93.32 C 94.84 92.70 96.05 91.45 96.66 90.83 C 96.82 94.58 92.21 95.65 89.86 97.83 L 88.46 97.43 C 88.17 99.49 86.03 99.70 84.36 99.82 C 82.63 101.40 80.28 101.44 78.16 102.08 C 76.96 102.21 75.18 103.73 74.66 101.61 C 73.28 103.29 71.13 102.69 69.27 102.53 C 67.91 102.64 66.55 102.73 65.19 102.80 C 65.03 102.15 64.69 100.83 64.53 100.18 C 66.53 102.68 69.52 100.45 72.02 101.48 C 72.82 101.37 74.43 101.15 75.23 101.03 C 74.79 100.68 73.92 99.96 73.48 99.60 L 71.16 100.82 C 71.35 97.04 76.01 99.13 78.42 98.38 L 78.42 97.26 C 78.71 97.58 79.28 98.22 79.57 98.54 C 80.28 97.95 81.71 96.76 82.43 96.16 C 82.31 96.77 82.09 97.97 81.98 98.58 C 80.53 98.47 80.06 99.20 80.58 100.76 C 81.64 100.18 82.70 99.62 83.78 99.06 C 83.29 97.87 82.93 96.63 82.58 95.39 L 84.04 96.98 C 85.10 95.35 86.68 94.39 88.61 94.40 C 89.49 93.13 90.79 92.29 92.04 91.45 C 93.21 90.40 94.42 89.39 95.67 88.45 M 86.53 96.20 C 85.74 96.50 83.73 98.51 85.54 98.77 C 87.07 98.90 89.24 94.86 86.53 96.20 M 77.96 99.42 C 78.64 100.11 78.64 100.11 77.96 99.42 M 76.20 100.41 C 76.81 101.14 76.81 101.14 76.20 100.41 Z" />
<path fill="#ffffff" opacity="1.00" d=" M 100.41 87.31 C 100.70 87.60 100.70 87.60 100.41 87.31 Z" />
<path fill="#ffffff" opacity="1.00" d=" M 99.31 88.48 L 99.88 88.61 C 100.45 90.05 98.32 92.27 96.95 91.72 C 97.52 90.55 98.20 89.23 99.31 88.48 Z" />
<path fill="#ffffff" opacity="1.00" d=" M 54.09 95.69 C 54.06 95.35 54.00 94.65 53.97 94.30 C 55.13 95.04 56.30 95.79 57.45 96.55 C 59.11 96.61 60.66 97.23 62.04 98.13 C 63.53 98.30 65.02 98.48 66.50 98.73 C 68.12 98.49 69.80 98.40 71.12 99.64 C 68.46 100.17 65.56 100.92 63.31 98.88 C 62.90 99.44 62.54 100.04 62.25 100.67 C 63.15 101.13 64.02 101.62 64.88 102.15 C 63.22 101.96 61.57 101.72 59.93 101.42 C 60.08 100.12 62.21 98.25 59.50 97.84 C 59.09 97.99 58.27 98.28 57.86 98.43 C 56.62 97.50 55.37 96.58 54.09 95.69 Z" />
<path fill="#ffffff" opacity="1.00" d=" M 50.83 96.04 L 51.13 95.56 C 51.67 96.13 52.74 97.26 53.28 97.83 C 53.66 97.66 54.44 97.32 54.83 97.15 C 55.56 97.91 56.30 98.67 57.04 99.43 C 58.01 99.11 58.78 99.30 59.35 99.99 C 58.17 102.06 55.71 100.03 54.76 98.81 C 53.05 98.88 50.53 98.26 50.83 96.04 Z" />
</g>
</svg>
