<svg id="Layer_1" data-name="Layer 1" xmlns="http://www.w3.org/2000/svg" viewBox="0 0 72 72"><defs><style>.cls-1{fill:#50af95;}.cls-2{fill:#fff;fill-rule:evenodd;}</style></defs><path class="cls-1" d="M67.43,43.84A32.39,32.39,0,1,1,43.83,4.57a32.39,32.39,0,0,1,23.6,39.27Z"/><path class="cls-2" d="M39.6,37.22h0c-.2,0-1.24.08-3.56.08-1.84,0-3.15,0-3.61-.08h0c-7.12-.31-12.44-1.55-12.44-3s5.32-2.73,12.44-3V36c.47,0,1.8.11,3.64.11,2.22,0,3.32-.09,3.52-.11V31.15c7.11.31,12.42,1.55,12.42,3s-5.3,2.72-12.42,3h0Zm0-6.57V26.31h9.92V19.7h-27v6.61h9.92v4.33c-8.06.37-14.13,2-14.13,3.89S24.37,38,32.43,38.41V52.3H39.6V38.4c8-.37,14.1-2,14.1-3.88S47.65,31,39.6,30.64h0Zm0,0Z"/></svg>